<?xml version="1.0" standalone="no"?>
<!DOCTYPE svg PUBLIC "-//W3C//DTD SVG 1.1//EN" "http://www.w3.org/Graphics/SVG/1.1/DTD/svg11.dtd" >
<svg xmlns="http://www.w3.org/2000/svg">
<metadata>Generated by Syncfusion Metro Studio</metadata>
<defs>
<font id="educ8e" horiz-adv-x="1024" >
<font-face units-per-em="1024" ascent="819" descent="-205" />
<missing-glyph horiz-adv-x="1024" />

<glyph unicode="&#xe700;" glyph-name="setup1" d="M616,712.6C616,695.2 602,681 584.7,681 567.4,681 553.4,695.2 553.4,712.6 553.4,730.1 567.4,744.3 584.7,744.3 602,744.3 616,730.1 616,712.6z M491,712.6C491,660.8 533,618.6 584.8,618.6 636.5,618.6 678.6,660.8 678.6,712.6 678.6,764.4 636.5,806.6 584.8,806.6 533.1,806.6 491,764.4 491,712.6z M127.5,11.6L372.8,278.4 627.5,2.5 627.5,378.7 565,378.7 565,162.3 372.8,370.5 190,171.8 190,784.1 283.7,784.1 283.7,846.5 127.5,846.5 127.5,11.6z M750.6,712.7C750.6,620.7 676.2,545.9 584.7,545.9 493.2,545.9 418.8,620.7 418.8,712.7 418.8,804.7 493.2,879.5 584.7,879.5 676.2,879.5 750.8,804.6 750.6,712.7z M564.9,1002.5L564.9,941 561.3,940.7C520.4,936.5,482.7,921.5,451,898.5L446.8,895.3 405.5,936.8 361.2,892.8 402.9,851.1 400.3,847.7C380.7,820.9,366.9,789.8,360.4,756L359.9,753 315,753 315,690.6 357.4,690.6 358.7,679.9C364.3,641.1,379.5,605.5,401.9,575.5L402.9,574.2 361.3,532.5 405.6,488.5 447,530 447.8,529.3C480.2,504.9,519.1,488.9,561.5,484.6L565.1,484.3 565.1,441 627.6,441 627.6,487.5 630.8,488.1C663.2,494.8,693.2,508.3,719,527.2L722.7,530 764,488.5 808.3,532.5 766.7,574.2 768.2,576.2C790.7,606.6,806,642.8,811.2,682.1L812.1,690.6 877.5,690.6 877.5,753 809.6,753 809.6,753.2C803.5,787.8,789.6,819.7,769.8,847L766.7,851.1 808.3,892.8 764,936.8 722.7,895.3 716.3,900C691,917.9,662.1,930.8,630.8,937.2L627.6,937.8 627.6,1002.5 565,1002.5 564.9,1002.5z" />

<glyph unicode="&#xe701;" glyph-name="setup2" d="M502.6,611.8L502.8,611.8C564.1,611.7 612.1,563.5 612.1,502.1 612.1,472.6 600.8,445.1 580.3,424.7 559.8,404.3 532.2,393.1 502.5,393.1L502.4,393.1C441.2,393.2 393.3,441.3 393.3,502.6 393.3,532 404.7,559.6 425.3,580.1 445.8,600.6 473.3,611.8 502.6,611.8L502.6,611.8z M381.1,624.3C348.7,591.9 330.8,548.7 330.8,502.5 330.8,406.1 406.2,330.6 502.4,330.5L502.5,330.5C548.8,330.5 592.1,348.2 624.4,380.3 656.8,412.6 674.6,455.8 674.6,502 674.6,596.8 597.7,674.1 503,674.3L502.6,674.3C456.7,674.3,413.6,656.5,381.1,624.3z M503.8,736.9C632.3,736.9 736.9,631.7 736.8,502.6 736.7,373.7 631.9,268.6 503,268.2 441.6,266.9 381.8,292.5 337.1,337.2 292.4,381.8 267.8,440.8 268,503.2 268.4,632.1 374,736.9 503.6,736.9L503.8,736.9z M205.5,503.3C205.3,424.1 236.4,349.4 292.9,292.9 349.2,236.6 423.5,205.6 502.3,205.6L503.2,205.6C666.4,206.1 799.3,339.3 799.3,502.5 799.3,666.1 666.8,799.3 503.8,799.4L503.6,799.4C339.7,799.5,206,666.5,205.5,503.3z M542.6,939.9C553.2,939.8 556.2,937.9 556.4,925.6 556.6,914.5 556.5,903.5 556.5,893.4L556.5,859.9 719.9,792.3 742.3,817C748.7,824.1 756.1,832.5 764,840.4 770.3,846.9 775.2,848.6 783.8,840.1 802.5,821.6 821.2,803 839.7,784.2 847.7,776 847.6,771.5 839.3,763.1 831.8,755.6 824.1,748.3 816.3,740.8L788.6,714.1 799.8,693.3C801.9,689.3 804,685.6 806.2,681.9 809.8,675.6 813.4,669.7 815.9,663.3 826,638.4 835.2,613.2 844,587.9 854,559 876.2,555.7 888.6,556.3 902,557 915.4,556.8 928.7,556.4 939.1,556.1 939.3,549.7 939.4,546.7 940.1,516.9 940.1,487.3 939.4,458.8 939.4,455.8 939.2,448.7 924.7,448.4 913.7,448.1 902.7,448.2 892.8,448.3L859.5,448.4 792.8,287.4 817,264.4C823.9,258 831.6,250.8 839,243.2 847.8,234.3 847.9,229.4 839.3,220.7 821.2,202.3 803,184 784.5,165.9 776.2,157.7 771.4,157.7 763.2,165.9 755.6,173.5 748.3,181.5 742,188.5L719.3,213.1 556.5,145.8 556.5,112.8C556.6,102.7 556.6,91.5000000000001 556.5,80.3000000000001 556.4,68.5000000000001 553.3,65.4000000000001 541.4,65.2000000000001 515.7,64.8000000000001 490,64.8000000000001 464.3,65.2000000000001 453.3,65.4000000000001 448.7,67.7000000000001 448.5,81.8000000000001L448.5,94.5000000000001C448.6,103.6 448.7,112.8 448,121.9 447.1,135.7 437.5,153.1 421.1,159.6 391.7,171.2 362.2,182.4 330.7,194.3L285.4,211.5 263.6,188.2C257.1,181.2 249.5,172.9 241.4,164.9 234.4,158 229.4,158.1 222.3,165.1 202.9,184.3 183.6,203.6 164.4,223 158.8,228.8 158.6,234.5 164.1,240.1 172.2,248.4 180.6,256.2 188.2,263.3L213.1,286.9 145.9,448.4 113.4,448.4C104.1,448.3 93.7999999999999,448.3 83.3999999999999,448.4 68.2999999999999,448.5 65.2999999999999,451.6 65.1999999999999,466.5 65.0999999999999,491 64.9999999999999,515.4 65.1999999999999,539.9 65.2999999999999,554.4 68.4999999999999,556.4 81.3999999999999,556.5L92.5999999999999,556.4C102.5,556.3 112.4,556.2 122.2,557.1 137.5,558.5 153.1,570.1 159.3,584.5 174.2,618.9 188.6,653.5 202.5,688.4 208.2,703 205.1,721.9 195,733.4 188.9,740.4 182.3,747 175.6,753.5 172.1,756.9 168.6,760.4 165.2,763.9 157.1,772.3 159.1,777.6 164.9,783.6 183.9,803.1 203.1,822.3 222.6,841.3 230.7,849.1 236.7,845.3 240.5,841.7 248.7,834 256.2,825.8 263,818.4L287,793 448.4,859.7 448.4,892.2C448.4,901.9 448.4,912.8 448.5,923.6 448.6,937.2 451.3,939.7 465,939.8 477.9,939.9 490.9,939.9 503.8,939.9 516.7,940 529.7,940 542.6,939.9z M464.6,1002.5C416.5,1002.3 386.3,972.4 385.8,924.4 385.7,916.7 385.7,908.9 385.7,901.6L302.8,867.3C296.7,874 290.1,880.9 283.1,887.4 252.6,915.9 208.8,915.4 178.8,886.1 159,866.8 139.4,847.2 120.1,827.4 89.7,796.2 89.7,752.3 120.1,720.7 124,716.7 127.9,712.8 131.8,709 134.5,706.2 137.3,703.6 140,700.8 128.9,673.4 117.7,646.2 106,619 101.8,618.9 97.5999999999999,619 93.3999999999999,619.1L80.8,619.2C32.9,618.8 2.89999999999995,588.7 2.59999999999995,540.5 2.39999999999995,515.7 2.49999999999995,491 2.59999999999995,466.3 2.79999999999995,417.2 33.5,386.4 82.6999999999999,386 89.9999999999999,385.9 97.1999999999999,385.9 104.1,385.9L138.9,303C132.5,297.1 125.9,290.7 119.4,284.1 90.1999999999999,254.2 90.4999999999999,209.2 119.9,179.4 139.3,159.7 158.8,140.3 178.4,120.9 209.9,89.7 253.9,89.6 285.3,120.6 291.3,126.5 297.1,132.6 302.4,138.3L308.6,135.9C335.5,125.7 360.9,116 386.1,106.2 386.1,102.6 386,98.9 386,95.2 386,90.4 385.9,85.7 386,81 386.6,34.2 417,3.50000000000003 463.3,2.70000000000003 476.2,2.50000000000003 489.2,2.40000000000003 502.1,2.40000000000003 515.5,2.40000000000003 528.9,2.50000000000003 542.3,2.70000000000003 588.5,3.40000000000003 618.6,33.7 619,79.8 619.1,88 619.1,96.3 619.1,104.1L702.9,138.7C708,133.1 713.5,127.3 719.2,121.6 751.7,89.3 795.6,89.1 828.3,121.3 847,139.7 865.5,158.2 883.9,176.9 916.1,209.8 916.1,254 883.6,287.1 878.1,292.7 872.4,298.2 867,303.3L901.2,385.9C909.1,385.8 917.6,385.8 926,386 969.7,386.9 1000.9,416.3 1001.9,457.3 1002.7,486.8 1002.7,517.4 1001.9,548.2 1001,588 971,617.7 930.7,619 920.2,619.3 909.8,619.5 899.4,619.3 891.4,642 883.1,664.5 874.1,686.8 871.9,692.1 869.4,697.2 866.6,702.4 872.4,708 878.1,713.5 883.7,719.2 916.2,751.9 916.5,795.7 884.3,828.2 865.6,847.1 846.8,866 827.8,884.7 795.6,916.3 751.2,916.3 719.7,884.5 713.8,878.7 708.3,872.6 703.1,866.9L619,901.6C619,909.6 619,918 618.9,926.3 618.4,972.1 588.6,1002 543.1,1002.3 530,1002.4 517,1002.4 503.9,1002.4 490.8,1002.4 477.8,1002.3 464.6,1002.5z" />

<glyph unicode="&#xe702;" glyph-name="liscense1" d="M151,324.3L151,318C151,309.6,157.8,302.7,166.3,302.7L489.8,302.7C488.4,308.5,482.6,339.7,482.6,339.7L166.3,339.7C157.8,339.7,150.9,332.8,151,324.3z M150.3,442.6L150.3,436.3C150.3,427.8,157.1,421,165.6,421L432.5,421 444.8,452.8C445.4,454.5,445.5,456.3,445.4,458L165.6,458C157.1,458,150.2,451.1,150.3,442.6z M148.1,558.7L148.1,552.4C148.1,544,154.9,537.1,163.4,537.1L421.1,537.1 436.9,552.9C440.1,556.1,440.9,561.1,439.1,565.3L435.2,574.1 163.4,574.1C155,574.1,148.1,567.2,148.1,558.7z M905.5,499.7C905.5,402.3 826.5,323.3 729.1,323.3 631.6,323.3 552.7,402.3 552.7,499.7 552.7,597.1 631.7,676.1 729.1,676.1 826.5,676.1 905.5,597.1 905.5,499.7z M147.6,673.7L147.6,667.4C147.6,658.9,154.4,652.1,162.9,652.1L481.8,652.1C482.3,653.3,482.5,654.6,482.5,655.9L482.5,689.1 162.9,689.1C154.4,689.1,147.6,682.2,147.6,673.7z M719,767.5L685.7,734.2C682.6,731.1,678,730.1,673.9,731.7L629.9,748.6C622.5,751.4,614.1,747.7,611.3,740.3L596.9,702.9C595.3,698.9,591.4,696.2,587.1,696.2L547,696.2C539,696.2,532.6,689.8,532.6,681.8L532.6,634.7C532.6,630.3,530,626.4,526,624.6L482.9,605.6C475.6,602.4,472.4,593.9,475.6,586.6L491.9,549.9C493.6,545.9,492.8,541.3,489.8,538.2L461.4,509.8C455.8,504.2,455.8,495,461.4,489.4L494.7,456.1C497.8,453,498.8,448.4,497.2,444.3L480.3,400.4C477.5,393,481.2,384.7,488.6,381.8L526,367.4C530,365.8,532.7,361.9,532.7,357.6L532.7,317.5C532.7,309.5,539.2,303.1,547.1,303.1L547.2,303.1 455.8,83.5C453.9,78.8,458.7,74,463.5,76.1L571.5,123.8C575.1,125.4,579.3,123.6,580.8,120L624.9,12.6C626.9,7.69999999999999,633.9,7.69999999999999,635.9,12.6L725.7,228.4C727.7,228 729.6,227.9 731.5,228.2 731.7,227.3 731.8,226.3 732.2,225.3L822,10C824,5.1,831,5.1,833,10L877.2,117.3C878.7,120.9,882.8,122.6,886.5,121L994.5,73.3C999.2,71.2,1004.1,76,1002.1,80.8L909.6,303.2 911.2,303.2C919.1,303.2,925.5,309.6,925.5,317.6L925.5,364.6C925.5,368.9,928.1,372.9,932.1,374.7L975.1,393.8C982.3,397,985.6,405.5,982.4,412.8L966.2,449.5C964.5,453.5,965.3,458.1,968.4,461.2L996.7,489.5C1002.3,495.1,1002.3,504.3,996.7,509.9L963.4,543.2C960.3,546.2,959.3,550.9,960.9,555L977.8,598.9C980.7,606.3,977,614.7,969.6,617.5L932.2,631.9C928.2,633.5,925.5,637.4,925.5,641.7L925.5,681.8C925.5,689.8,919.1,696.2,911.2,696.2L864.1,696.2C859.7,696.2,855.8,698.8,854,702.7L834.9,745.8C831.7,753,823.3,756.3,816,753.1L779.3,736.8C775.3,735.1,770.7,735.9,767.6,739L739.3,767.3C736.4,770.1 732.8,771.5 729.1,771.5 725.4,771.5 721.8,770.1 719,767.5z M147.5,803.2L147.5,796.9C147.5,788.4,154.3,781.6,162.8,781.6L365.2,781.6C373.6,781.6,380.5,788.4,380.5,796.9L380.5,803.2C380.5,811.7,373.7,818.5,365.2,818.5L162.8,818.5C154.3,818.5,147.4,811.7,147.5,803.2z M2.5,973.1L2.5,114.3C2.5,100.2,14,88.7,28.1,88.7L407.1,88.7 434.8,155.3 89.5,155.3C78.3,155.3,69.2,164.4,69.2,175.6L69.2,911.7C69.2,922.9,78.3,932,89.5,932L672.3,932C683.5,932,692.6,922.9,692.6,911.7L692.6,792 715,814.6C718.8,818.4 723.9,820.5 729.4,820.5 734.9,820.5 740,818.3 743.8,814.5L759.3,799 759.3,973.1C759.3,987.2,747.8,998.7,733.6,998.7L28.2,998.7C14.1,998.7,2.6,987.2,2.5,973.1z" />

<glyph unicode="&#xe703;" glyph-name="liscense2" d="M642.8,237.8C669,225.2 698.4,218.1 729.5,218.1 760.5,218.1 790,225.2 816.2,237.8L821.8,240.7 821.8,89.2 728.7,182 725.7,179 725.7,179 692.5,145.7 685.3,138.4 637.2,90.1 637.2,240.6 642.8,237.8z M162.7,221.3L537.7,221.3 537.7,283.8 162.7,283.8C162.7,283.8,162.7,221.3,162.7,221.3z M162.7,346.3L412.7,346.3 412.7,408.8 162.7,408.8C162.7,408.8,162.7,346.3,162.7,346.3z M868,418.2C868,341.8 805.9,279.7 729.5,279.7 653.1,279.7 591,341.8 591,418.2 591,494.6 653.1,556.7 729.5,556.7 805.9,556.7 868,494.6 868,418.2z M162.7,533.8L537.7,533.8 537.7,596.3 162.7,596.3C162.7,596.3,162.7,533.8,162.7,533.8z M743.4,617.8L745.1,617.6 742.2,617.8 743.4,617.8z M736.5,618L738.1,617.9 730,618.1 736.5,618z M162.7,658.8L537.7,658.8 537.7,721.3 162.7,721.3C162.7,721.3,162.7,658.8,162.7,658.8z M162.7,783.8L412.7,783.8 412.7,846.3 162.7,846.3C162.7,846.3,162.7,783.8,162.7,783.8z M137.1,941.1L721.7,941.1 721.7,618.1 719.1,618C613.5,612.6 529.4,525.2 529.4,418.2 529.4,369.8 546.6,325.5 575.1,290.9L575.6,290.3 575.6,140.9 574.3,140.9 574.3,161.6 497.4,161.6 497.4,140.9 137.1,140.9 137.1,941 137.1,941.1z M75.5,957L75.5,94.8C75.5,77.9,76.4,79.2,93.3,79.2L497.2,79.2 497.2,23 574.1,23 574.1,79.2 575.4,79.2 575.4,2.7 636.5,2.7 636.6,2.6 636.7,2.7 637,2.7 637,3 728.7,95 821.5,2.5 821.7,2.7 883.3,2.7 883.3,290.4 883.8,291C912.4,325.6 929.5,370 929.5,418.3 929.5,508 870.4,584 789,609.3L783.4,610.9 783.4,957C783.4,973.8,762,1002.6,745.1,1002.6L93.3,1002.6C76.4,1002.5,75.6,973.8,75.5,957z" />

<glyph unicode="&#xe704;" glyph-name="country1" d="M761.6,389.6C761.6,341.4 800.6,302.4 848.8,302.4 897,302.4 936,341.4 936,389.6 936,437.8 897,476.8 848.8,476.8 800.6,476.8 761.6,437.8 761.6,389.6z M495.6,399C495.6,337 545.9,286.7 607.9,286.7 669.8,286.7 720.1,337 720.1,399 720.1,461 669.9,511.2 607.9,511.2 545.9,511.2 495.6,461 495.6,399z M399.9,870.8C228.5,731.6 55.7,832.5 55.7,832.5 -10.1,840.2 3.7,791.2 3.7,791.2L107.7,543.3 108.1,543.4 315.7,58.6 477.9,58.6 478,58.7 805.8,58.7C805.8,80.9,801.9,102.2,794.7,121.9L793.2,125.9 1002.6,125.9C1002.6,204.4 939,268.1 860.4,268.1 811.3,268.1 768,243.2 742.4,205.4L739.3,200.5 732.4,205.9C701.8,228.8 663.9,242.4 622.8,242.4 619.6,242.4 616.5,242.3 613.4,242.1L609.4,241.8 609.5,242 608.9,241.8 604,241.4C573.2,238.3,544.7,227.5,520.3,211L517.7,209.2 344.8,147.2 172.2,555 175,555.5C449.5,487.1 565,693.2 565,693.2 674.4,847.3 889.3,726.9 889.3,726.9 919.9,717.7 904.6,751.4 904.6,751.4 876.3,841.6 826.6,873.7 826.6,873.7 763.1,928.3 695.3,946.8 632.9,946.9 505.1,947.2 399.9,870.7 399.9,870.8z" />

<glyph unicode="&#xe705;" glyph-name="country2" d="M868.1,218.1C824.3,161.9 768.1,118.1 705.6,86.9 743.1,121.3 777.5,165 802.5,218.1L868.1,218.1z M761.9,218.1C715,136.9 655.6,77.5 583.8,52.5 611.9,93.1 633.8,149.4 649.4,218.1L761.9,218.1z M611.9,218.1C583.8,108.7 543.1,40 502.5,40 461.9,40 421.2,105.6 393.1,218.1L611.9,218.1z M355.6,218.1C371.2,149.4 393.1,90 421.2,52.5 349.4,80.6 286.9,140 243.1,218.1L355.6,218.1z M202.5,218.1C227.5,168.1 261.9,121.2 299.4,86.9 233.8,118.2 180.7,161.9 136.9,218.1L202.5,218.1z M965,468.1C961.9,390,936.9,318.1,896.3,255.6L821.3,255.6C849.4,318.1,865,390,868.2,468.1L965,468.1z M830.6,468.1C827.5,390,808.7,318.1,780.6,255.6L658.8,255.6C671.3,321.2,677.6,396.2,680.7,468.1L830.6,468.1z M640,468.1C640,390,630.6,318.1,618.1,255.6L383.8,255.6C371.2,315,365,386.9,361.9,468.1L640,468.1z M324.4,468.1C327.5,396.2,333.8,321.2,346.3,255.6L224.4,255.6C196.3,318.1,177.5,390,174.4,468.1L324.4,468.1z M136.9,468.1C140,393.1,158.8,318.1,183.8,255.6L108.8,255.6C71.3,318.1,46.2,390,40,468.1L136.9,468.1z M911.9,718.1C946.3,655.6,965,583.7,965,505.6L868.1,505.6C868.1,580.6,852.5,652.5,830.6,718.1L911.9,718.1z M790,718.1C811.9,655.6,827.5,583.7,827.5,505.6L677.5,505.6C677.5,577.5,674.4,649.4,661.9,718.1L790,718.1z M624.4,718.1C636.9,655.6,643.2,583.7,643.2,505.6L361.9,505.6C365,583.7,371.3,655.6,380.7,718.1L624.4,718.1z M340,718.1C330.6,652.5,324.4,577.5,324.4,505.6L174.4,505.6C174.4,580.6,186.9,655.6,211.9,718.1L340,718.1z M174.4,718.1C149.4,652.5,136.9,580.6,136.9,505.6L40,505.6C40,580.6,58.7,655.6,93.1,718.1L174.4,718.1z M890,755.6L818.1,755.6C790,821.2 752.5,877.5 705.6,918.1 780.6,880.6 843.1,824.4 890,755.6z M186.9,755.6L115,755.6C161.9,824.4 224.4,880.6 299.4,918.1 252.5,877.5 215,821.3 186.9,755.6z M777.5,755.6L655.6,755.6C640,836.9 615,905.6 583.7,949.4 665,921.2 733.7,849.4 777.5,755.6z M352.5,755.6L230.6,755.6C274.4,849.4 340,921.2 421.2,949.4 390,905.6 365,836.9 352.5,755.6z M618.1,755.6L386.9,755.6C415,886.9 458.8,965 502.5,965 546.2,965 590,886.9 618.1,755.6z M2.5,502.5C2.5,399.4,33.8,302.5,86.9,224.4L86.9,218.1 90,218.1C180.6,86.9 330.6,2.5 502.5,2.5 674.4,2.5 824.4,86.9 915,218.1L918.1,218.1 918.1,224.4C971.2,302.5 1002.5,399.4 1002.5,502.5 1002.5,777.5 777.5,1002.5 502.5,1002.5 227.5,1002.5 2.5,777.5 2.5,502.5z" />

<glyph unicode="&#xe706;" glyph-name="country3" d="M559.5,419C598.2,392.8,641.3,369.5,689,350.9L704.9,345 703.5,344.2C639.5,308.5,565.7,296.6,495.2,308.5L489.7,309.5 489.8,309.7C508.3,349.6,529,385.5,550.9,417.8L554.2,422.7 559.5,419z M466.3,494.7C483.7,478.1,502.3,461.8,522.2,446.3L528.6,441.4 527.3,439.5C503.8,404.9,481.4,366.2,461.4,323.1L458.6,317 457.7,317.2C414.7,330,373.8,351.9,338.3,383.2L337.5,383.9 457.1,503.5 466.3,494.7z M728,598.4C773.5,530.9,797.4,472.2,807.6,443.3L808.8,439.8 805.1,434.6C795.6,421.5 784.9,409 773.1,397.2 763.7,387.7 753.8,379 743.5,371L738.1,366.9 731.1,369.1C672.9,388.3,621.5,414.8,576.3,445.4L572.4,448.1 577.6,454.9C623.7,514.7,673.2,560,718.2,593.8L726.9,600.2 728,598.4z M369.1,607.2C386.2,583.4,405.4,559.2,427,535.2L435.4,526 315.2,405.8 308.8,412.8C276.1,450.2,253.6,493.4,241.4,538.9L241.2,539.8 241.4,539.9C272.3,554,316.7,576.8,365.6,609.9L366.7,610.6 369.1,607.2z M861.9,675.1C873.3,607.7,862.9,537.2,830.7,475.2L829.8,473.6 828.4,477.2C814.8,510.7,791.6,559.8,755,614.4L752.6,617.9 758.3,621.7C806.1,652.7,844.6,669.4,861.5,676L861.7,676.1 861.9,675.1z M651.9,694.1C673.2,671.4,691.9,648.6,708.3,626.5L708.3,626.5 702.2,622C653.2,585.7,599,536.1,548.8,469.5L546.8,466.8 540.8,471.4C521.7,486.2,503.9,501.8,487.3,517.7L479.2,525.6 649.9,696.3 651.9,694.1z M272.5,778.9C286.9,744.8,311.3,693.6,348.3,637.3L349.1,636.2 339,629.5C298.8,603.1,262.3,584.1,235.1,571.4L234.4,571.1 233.6,576.4C223.7,645.3,236.4,716.9,271.6,779.1L272.1,779.9 272.5,778.9z M556.7,780.1C580.9,761.7,603,742.6,623.1,723.3L627.9,718.6 457.4,548.1 449.7,556.5C429,579.4,410.6,602.6,394.3,625.4L392.1,628.5 392.6,628.9C444.1,666.7,498.6,715.7,546.5,777.5L551.4,783.9 556.7,780.1z M787.2,832.1C818.5,796.6,840.5,755.8,853.2,712.7L854.8,707.1 854.4,707C837.4,700.8,791.9,682.4,735.2,645.1L734,644.3 726.8,653.9C712.5,672.6,696.7,691.7,679.1,710.8L672,718.3 786.5,832.9 787.2,832.1z M384.7,878.9C434.7,857.9,479.1,833.5,518.7,807.1L525.9,802.2 524,799.7C478.2,739.7,425.6,692.1,375.9,655.4L374.4,654.3 374.3,654.4C330.5,721,305,780.1,293.4,810.2L292.8,811.8 297.7,818.2C305.6,828.2 314.1,837.8 323.3,847 336.9,860.5 351.4,872.6 366.6,883.2L369.4,885.1 384.7,878.9z M639,927C682,914.2,722.9,892.3,758.4,861L764.7,855.3 650.1,740.7 641.6,748.9C621.7,767.8,600,786.5,576.3,804.5L569.7,809.4 575.8,818.4C596.9,850.3,616.1,885.2,632.3,923.2L634.4,928.2 639,927z M601.5,935.5L603.4,935.2 597.4,921.5C583.6,891.2,567.8,863.1,550.7,837.1L544.2,827.4 536.7,832.5C500.1,857.1,459.4,879.9,414.2,900.1L403,905 407.3,907.2C451.6,929.1 499.9,940 548.3,940 566.1,940 583.9,938.5 601.5,935.5z M118.7,939.2L144.9,918.7C74.4,830.3 35.9,720.7 35.9,606.7 35.9,343.5 240.1,127 498.3,107.3L509.3,106.6 509.3,65.3 357.1,65.3 357.1,2.7 732.7,2.7 732.7,65.3 571.8,65.3 571.8,107.1 575.4,107.3C699.3,116.8,814.6,171.7,900.2,262L924.2,237.4 969,281.1 897.2,354.8 875,327.9C791.4,226.5 668.1,168.4 536.8,168.4 295.1,168.4 98.5,365 98.5,606.7 98.5,716.3 139.2,821.3 213.1,902.1L235.9,927.1 157.4,988.5 118.7,939.2z M279.1,891.3C130.7,742.8 130.7,501.3 279.1,352.9 353.3,278.7 450.8,241.6 548.3,241.6 645.8,241.6 743.3,278.6 817.5,352.9 965.9,501.4 965.9,742.9 817.5,891.3 743.3,965.5 645.8,1002.6 548.3,1002.6 450.8,1002.6 353.3,965.5 279.1,891.3z" />

<glyph unicode="&#xe707;" glyph-name="language1" d="M580.6,693.1L580.6,611.8 502.5,611.8 502.5,693.1 580.6,693.1z M421.3,693.1L421.3,611.8 343.2,611.8 343.2,693.1 421.3,693.1z M258.8,693.1L258.8,611.8 180.7,611.8 180.7,693.1 258.8,693.1z M821.3,633.8C821.3,452.5,621.3,305.7,374.4,305.7L365,305.7C430.6,246.3 530.6,205.7 646.3,205.7 680.7,205.7 715,212 746.3,218.2L936.9,86.9 849.4,255.6C943.2,302.5 1002.5,380.6 1002.5,468.1 1002.5,568.1 924.4,655.6 811.9,699.3 818.1,677.5 821.3,658.7 821.3,633.8z M2.5,643.1C2.5,549.3,68.1,465,165,418.1L71.3,240 274.4,380.6C308.8,374.3 343.2,368.1 380.7,368.1 590.1,368.1 758.8,490 758.8,643.1 758.8,793.1 590,918.1 380.7,918.1 171.3,918.1 2.5,793.1 2.5,643.1z" />

<glyph unicode="&#xe708;" glyph-name="language2" d="M99.4,430.6C40,386.9,11.9,336.9,2.5,293.1L2.5,286.8 321.2,286.8C324.3,296.2,327.5,305.6,330.6,311.8L336.9,311.8C374.4,311.8 421.3,321.2 455.7,358.7 465.1,371.2 480.7,386.8 480.7,411.8L480.7,414.9C480.7,424.3 474.4,436.8 461.9,439.9 458.8,443 455.6,443 452.5,443L449.4,443C421.3,436.8 380.6,414.9 346.3,414.9 340,414.9 330.7,414.9 324.4,418 324.4,418 321.3,418 318.1,421.1 302.5,433.6 290,439.8 277.5,446.1 271.2,449.2 265,449.2 258.7,452.4 239.9,458.7 224.3,461.8 211.8,461.8L199.3,461.8 180.5,461.8C158.8,461.9,133.8,455.6,99.4,430.6z M758.8,461.9C743.2,458.8 724.4,449.4 702.5,433.8 690,427.5 680.6,424.4 668.1,424.4 633.7,424.4 593.1,449.4 565,452.5L561.9,452.5C546.3,452.5,536.9,436.9,536.9,424.4L536.9,421.3C536.9,393.2 552.5,377.5 561.9,368.2 590,333.8 633.8,324.4 668.2,321.3 668.2,308.8 665.1,299.4 665.1,286.9L1002.6,286.9C999.5,299.4 996.3,311.9 993.2,324.4 980.7,361.9 952.6,399.4 924.4,421.3 886.9,452.6 846.3,461.9 818.1,465L802.5,465C783.8,465,771.3,461.9,758.8,461.9z M115,577.5C115,521.2 158.8,477.5 211.9,480.6 265,480.6 308.8,524.4 308.8,577.5 308.8,630.6 265.1,674.4 211.9,674.4 158.8,674.4 115,630.6 115,577.5z M715,577.5C715,521.2 758.8,477.5 815,477.5 871.2,477.5 915,521.3 915,577.5 915,633.7 871.2,677.5 815,677.5 761.9,677.5 715,633.7 715,577.5z M368.1,608.8C368.1,549.4 440,502.5 527.5,502.5 549.4,502.5 571.3,505.6 590,511.9 621.3,483.8 649.4,480.6 658.8,480.6L661.9,480.6C665,480.6,665,483.7,665,483.7L665,486.8 661.9,489.9C661.9,493 658.8,496.2 655.6,499.3 649.3,505.6 640,518.1 630.6,530.6 668.1,549.4 690,577.5 690,611.9 690,671.3 618.1,718.1 530.6,718.1 443.1,718.1 371.3,671.2 368.1,608.8z" />

<glyph unicode="&#xe709;" glyph-name="religion1" d="M315.7,163.7C317.4,162.3,318.7,161.4,319.2,161.2L323,158.8 400.8,158.8 404.6,161.2C405,161.5,406.3,162.3,408.1,163.7L408.8,164.3 408.8,96.3 315,96.3 315,164.4 315.7,163.7z M385,210.7C390.7,204.9 393.5,199.4 393.1,195.5 392.9,193.3 391.7,191.4 390.4,190L333.3,190C332,191.4 330.8,193.3 330.6,195.5 330.2,199.4 333.1,204.8 339.2,211.2L361.9,236.9 385,210.7z M565.7,257.5C567.4,256.1,568.7,255.2,569.2,255L573,252.6 650.8,252.6 654.6,255C655,255.3,656.3,256.1,658.1,257.5L658.8,258.1 658.8,190.1 565,190.1 565,258.2 565.7,257.5z M635,304.4C640.7,298.6 643.5,293.1 643.1,289.2 642.9,287 641.7,285.1 640.4,283.7L583.3,283.7C582,285.1 580.8,287 580.6,289.2 580.2,293.1 583.1,298.5 589.2,304.9L611.9,330.6 635,304.4z M533.8,346.2L533.8,33.7 440,33.7 440,346.1 533.8,346.1z M783.8,408.7L783.8,190 690,190 690,408.7 783.8,408.7z M283.8,408.7L283.8,96.3 190,96.3 190,408.7 283.8,408.7z M345,314.9L376.3,314.9 376.3,408.7 345,408.7 345,314.9z M521.4,415.1C527.6,408.6 534.7,398.9 533.7,389.8 533.1,384.3 529.7,380 527.1,377.4L446.7,377.4C444.1,380 440.7,384.3 440.1,389.8 439.1,398.9 446.3,408.5 452.9,415.5L486.9,454.8 521.4,415.1z M271.4,477.6C277.6,471.1 284.7,461.4 283.7,452.3 283.1,446.8 279.7,442.5 277.1,439.9L196.7,439.9C194.1,442.5 190.7,446.8 190.1,452.3 189.1,461.4 196.3,471 202.9,478L236.9,517.2 271.4,477.6z M771.4,477.6C777.6,471.1 784.7,461.4 783.7,452.3 783.1,446.8 779.7,442.5 777.1,439.9L696.7,439.9C694.1,442.5 690.7,446.8 690.1,452.3 689.1,461.4 696.3,471 702.9,478L736.9,517.3 771.4,477.6z M674.1,565L689.2,509.9 679.8,499C664,482.3 657.1,465.3 659.2,448.3 659.9,442.5 661.6,437.4 663.8,432.9L664.8,431 658.9,431 658.9,324.8 658.1,325.6 612,377.8 566.3,326.1 565,324.7 565,377.5 562.9,377.5 562.9,377.6C563.7,380.2 564.3,382.9 564.6,385.8 566.7,402.8 559.7,419.8 544.4,436L534.7,447.2 559.9,565 674.1,565z M471.3,533.8L502.6,533.8 502.6,627.6 471.3,627.6 471.3,533.8z M721.3,596.3L752.6,596.3 752.6,690 721.3,690 721.3,596.3z M221.3,596.3L252.6,596.3 252.6,690 221.3,690 221.3,596.3z M631.4,721.2L665.5,596.3 566.5,596.3 593.1,721.2 631.4,721.2z M646.4,790.1C652.6,783.6 659.7,773.9 658.7,764.8 658.2,760 655.5,756.1 653.1,753.5L652.2,752.6 571.6,752.6 570.7,753.5C568.3,756.1 565.7,760 565.1,764.8 564.1,773.9 571.3,783.5 577.9,790.5L611.9,829.7 646.4,790.1z M554.7,811.5C538.9,794.8 532,777.8 534.1,760.8 536.9,737.6 555.5,725 557.6,723.6L561.3,721.2 509.1,476.7 486.9,502.3 429.7,436.3C413.9,419.6 407,402.6 409.1,385.6 409.5,382.7 410,380 410.8,377.4L410.8,377.3 408.7,377.3 408.7,231 407.9,231.8 361.8,284 316.1,232.3 315,231 315,440 312.9,440 312.9,440.1C313.7,442.7 314.3,445.4 314.6,448.3 316.7,465.3 309.7,482.3 294.4,498.5L236.9,565 179.7,499C163.9,482.3 157,465.3 159.1,448.3 159.6,444 160.7,440 162.1,436.4L163.1,434 158.7,434 158.7,96.3 125.3,96.3 125.3,65 283.7,65 315,65 408.8,65 408.8,33.7 65,33.7 65,2.5 940,2.5 940,33.7 565,33.7 565,65 877.5,65 877.5,96.3 565,96.3 565,158.8 846.3,158.8 846.3,190 815,190 815,440 812.9,440 812.9,440.1C813.7,442.7 814.3,445.4 814.6,448.3 816.7,465.3 809.7,482.3 794.4,498.5L736.9,565 713.8,538.3 663.6,722 666.2,723.7C668.3,725.1 686.9,737.7 689.7,760.9 691.8,777.9 684.8,794.9 669.5,811.1L611.9,877.6 554.7,811.5z M596.3,908.8L627.6,908.8 627.6,1002.6 596.3,1002.6 596.3,908.8z" />

<glyph unicode="&#xe70a;" glyph-name="religion2" d="M2.5,231.4L22.7,231.3C25.5,231.3,314.2,227.3,508.8,27.8L537.8,56.1C684.1,209.7,980.4,231.2,983.5,231.4L1002.5,232.6 1002.5,900.3 962,900.3 962,270.2C891.2,263.2 644.6,228.5 508.2,84.3 333.5,241.4 110.9,267 43,271.1L43,900.3 2.5,900.3 2.5,231.4z M519.4,844.5L519.4,145.2C717.9,312.4,941.7,294.7,941.7,294.7L941.7,976.3C930.3,977 919,977.4 907.9,977.4 682,978.1 519.4,844.5 519.4,844.5z M73.4,976.3L73.4,294.7C73.4,294.7,297.2,312.4,495.7,145.2L495.7,844.5C495.7,844.5 333.1,978.1 107.2,977.4 96.1,977.4 84.8,977 73.4,976.3z" />

<glyph unicode="&#xe70b;" glyph-name="country4" d="M2.5,941.6L183.8,7.2 243.2,19.7 61.9,954.1 2.5,941.6z M102.5,960.3L211.9,404.1C211.9,404.1,465,497.8,1002.5,360.3L815,650.9 899.4,932.1C899.4,932.1 543.2,997.7 302.5,997.7 208.7,997.8 133.7,988.4 102.5,960.3z" />

<glyph unicode="&#xe70c;" glyph-name="security1" d="M838.8,211.9C858.4,211.9 876.8,204.2 890.7,190.3 904.5,176.5 912.2,158 912.1,138.4 912.1,97.9 879.1,65 838.7,65L838.7,65C819.1,65 800.7,72.7 786.8,86.6 772.9,100.4 765.3,118.9 765.3,138.5 765.4,179 798.3,211.9 838.8,211.9L838.8,211.9z M811.4,594.6L685.1,594.7 685,532.2 811.3,532.1 811.3,471 748.8,471 748.8,408.5 811.3,408.5 811.3,271.6 804.8,270.1C746.2,255 702.8,201.7 702.7,138.5 702.7,102.2 716.8,68 742.4,42.3 768,16.6 802.2,2.40000000000003 838.5,2.40000000000003L838.6,2.40000000000003C913.5,2.40000000000003 974.4,63.3 974.5,138.2 974.5,174.5 960.4,208.7 934.8,234.4 918.8,250.5 899.4,262 878.3,268.4L873.7,269.7 873.7,658.4 811.2,658.4 811.2,594.6z M514.8,799.2C514.8,724,455.5,662.3,381.2,658.5L378.9,658.4 369,658.4 366.7,658.5C292.4,662.3 233.1,723.9 233.1,799.2 233.1,876.9 296.3,940 373.9,940 451.6,940 514.8,876.8 514.8,799.2z M170.7,799.2C170.7,739.6,196.4,686,237.4,648.7L239.9,646.5 233.6,644.5C116,605.2,30.4,487.3,30.4,348.4L30.4,2.5 561.4,2.5 561.4,65 92.9,65 92.9,348.4C92.9,482.6,196.6,595.9,319.5,595.9L369.1,595.9 374,595.8 378.9,595.9 431.1,595.9C461.9,595.9 491.5,589.1 519.2,575.6 535.1,567.8 550.3,557.9 564.3,546.2L604.5,594.1C586.6,609.2 567.1,621.8 546.5,631.9 535.2,637.4 523.6,642.1 511.8,645.8L508.5,646.8 510.6,648.6C551.5,685.8 577.3,739.5 577.3,799.1 577.3,911.2 486.1,1002.4 374,1002.4 261.9,1002.5 170.7,911.3 170.7,799.2z" />

<glyph unicode="&#xe70d;" glyph-name="security2" d="M574.6,334.8C574.6,309.7,558.9,284.7,537,275.3L537,184.4 483.7,184.4 483.7,275.3C461.8,284.7 446.1,309.8 446.1,334.8 446.1,372.4 477.4,400.6 511.9,400.6 546.4,400.7 577.7,372.5 574.6,334.8z M665.5,751.8L665.5,657.8C665.5,645.2,665.5,635.9,662.3,623.3L345.8,623.3C342.7,635.9,342.7,645.2,342.7,657.8L342.7,751.8C342.7,849 414.8,927.3 502.5,927.3 593.4,927.3 665.5,848.9 665.5,751.8z M286.2,767.4L286.2,642 286.2,620.1C226.6,601.3,179.6,541.7,179.6,469.6L179.6,153.1C179.6,68.5,242.3,-0.5,320.6,2.59999999999999L684.2,2.59999999999999C762.5,2.59999999999999,825.2,71.6,825.2,156.2L825.2,469.6C825.2,541.7,781.3,604.4,718.6,620.1L718.6,642 718.6,767.4C718.6,895.9 621.4,1002.5 502.3,1002.5 383.2,1002.5 286.2,895.9 286.2,767.4z" />

<glyph unicode="&#xe70e;" glyph-name="user1" d="M237,712.1C237,587.7 293.1,461.2 367.3,383.2 396.3,305.1 344.5,276.1 333.7,272 183.8,216.2 8,114.6 8,14.2L8,2.5 997,2.5 997,14.2C997,117.6 820.3,218.4 663.1,272 655.9,274.4 610.6,295.4 638.9,384L638.5,384C712.3,462.2 768.7,588.2 768.7,712.1 768.7,902.6 645.6,1002.5 502.5,1002.5 359.4,1002.5 237,902.6 237,712.1z" />

<glyph unicode="&#xe70f;" glyph-name="group1" d="M329.4,151.1L415.2,2.5 586.8,2.5 672.6,151.1 586.8,299.7 415.2,299.7 329.4,151.1z M23.9,323.3L109.6,174.7 281.2,174.7 367,323.3 281.2,471.9 109.6,471.9 23.9,323.3z M637.8,326.1L723.6,177.5 895.2,177.5 981,326.1 895.2,474.7 723.7,474.7 637.8,326.1z M329.4,501.1L415.2,352.5 586.8,352.5 672.6,501.1 586.8,649.7 415.2,649.7 329.4,501.1z M637.8,678.9L723.6,530.3 895.2,530.3 981,678.9 895.2,827.5 723.7,827.5 637.8,678.9z M23.9,681.6L109.6,533 281.2,533 367,681.6 281.2,830.2 109.6,830.2 23.9,681.6z M329.4,853.9L415.2,705.3 586.8,705.3 672.6,853.9 586.8,1002.5 415.2,1002.5 329.4,853.9z" />

<glyph unicode="&#xe710;" glyph-name="group2" d="M714.5,296.5L714.5,209.4 320.6,209.4 320.6,296.5C320.6,405.1 409,493.5 517.6,493.5 626.2,493.5 714.6,405.1 714.5,296.5z M260.1,296.5L260.1,148.8 775.2,148.8 775.2,296.5C775.2,438.5 659.6,554.1 517.6,554.1 375.6,554.1 260.1,438.5 260.1,296.5z M679.4,535L722.6,492.5C748.1,518.4 783.7,533.2 820.5,533.2 895.4,533.2 942,486.8 942,412L942,290.8 803.5,290.8 803.5,230.2 1002.5,230.2 1002.5,412C1002.5,520.7 929.3,593.8 820.2,593.8 767.5,593.8 716.1,572.4 679.4,535z M2.5,412L2.5,230.2 231.8,230.2 231.8,290.8 63.1,290.8 63.1,412C63.1,491.6 132.5,533.2 201.4,533.2 240.5,533.2 281.5,517.3 305.9,492.5L349.1,535C313.4,571.3 256.8,593.8 201.1,593.8 87.9,593.8 2.5,515.6 2.5,412z M875.7,713.7C875.7,683.4 851,658.7 820.7,658.7 790.4,658.7 765.7,683.4 765.7,713.7 765.7,744 790.3,768.7 820.7,768.7 851,768.7 875.7,744 875.7,713.7z M255.9,713.7C255.9,683.4 231.3,658.7 200.9,658.7 170.6,658.7 145.9,683.4 145.9,713.7 145.9,744 170.6,768.7 200.9,768.7 231.3,768.7 256,744 255.9,713.7z M598.5,713.7C598.5,668.4 561.7,631.6 516.4,631.6 471.1,631.6 434.3,668.4 434.3,713.7 434.3,759 471.1,795.8 516.4,795.8 561.6,795.8 598.5,759 598.5,713.7z M705,713.7C705,650 756.9,598.1 820.7,598.1 884.4,598.1 936.3,650 936.3,713.7 936.3,777.4 884.5,829.3 820.7,829.3 756.9,829.3 705,777.4 705,713.7z M85.3,713.7C85.3,650 137.1,598.1 200.9,598.1 264.7,598.1 316.6,650 316.6,713.7 316.6,777.4 264.7,829.3 200.9,829.3 137.2,829.3 85.3,777.4 85.3,713.7z M373.7,713.8C373.7,635.1 437.8,571.1 516.4,571.1 595,571.1 659.1,635 659.1,713.7 659.1,792.4 595.1,856.4 516.4,856.4 437.7,856.4 373.7,792.5 373.7,713.8z" />

<glyph unicode="&#xe711;" glyph-name="user2" d="M602.5,79.1L565,79.1 502.5,222.9 552.5,316.6 449.4,316.6 502.5,226 446.3,79.1 396.3,79.1 330.7,366.6C83.8,338.4,2.5,38.4,2.5,38.4L1002.5,38.4C974.4,313.4,686.9,382.2,686.9,382.2L602.5,79.1z M221.3,691.6C221.3,541.6 343.2,416.6 496.3,416.6 646.3,416.6 771.3,538.5 771.3,691.6 771.3,841.6 649.4,966.6 496.3,966.6 343.2,966.6 218.1,841.6 221.3,691.6z" />

<glyph unicode="&#xe712;" glyph-name="group3" d="M724.4,510.3C752.5,472.8,771.3,429.1,771.3,379.1L771.3,207.2 1002.6,207.2 1002.6,382.2C1002.6,457.2,943.2,516.6,868.2,516.6L768.2,516.6C755.6,516.6,740,513.4,724.4,510.3z M2.5,382.2L2.5,207.2 218.1,207.2 218.1,379.1C218.1,429.1 236.9,476 268.1,513.5 258.7,516.6 246.2,516.6 236.8,516.6L136.8,516.6C61.9,516.6,2.5,457.2,2.5,382.2z M255.6,375.9L255.6,147.8 733.7,147.8 733.7,375.9C733.7,472.8,655.6,550.9,558.7,550.9L430.6,550.9C333.8,550.9,255.6,472.8,255.6,375.9z M711.9,641.6C711.9,582.2 761.9,532.2 821.3,532.2 880.7,532.2 930.7,582.2 930.7,641.6 930.7,701 880.7,751 821.3,751 761.9,750.9 711.9,700.9 711.9,641.6z M80.6,641.6C80.6,582.2 130.6,532.2 190,532.2 249.4,532.2 299.4,582.2 299.4,641.6 299.4,701 249.4,751 190,751 130.6,751 80.6,700.9 80.6,641.6z M465,854.1C461.9,851 461.9,851 458.7,851 455.6,847.9 455.6,847.9 452.4,847.9 449.2,847.9 449.3,844.8 446.1,844.8 442.9,844.8 443,841.7 439.8,841.7 436.6,841.7 436.7,838.6 433.5,838.6 430.3,838.6 430.4,835.5 427.2,835.5 424,835.5 424.1,832.4 420.9,832.4 417.7,832.4 417.8,829.3 414.6,829.3 411.4,829.3 411.5,826.2 408.3,826.2 408.3,823.1 405.2,823.1 402,816.8 398.9,813.7 398.9,813.7 395.7,810.5 392.5,807.3 389.4,807.4 389.4,804.2 389.4,801 386.3,801.1 386.3,797.9 386.3,794.7 383.2,794.8 383.2,791.6 383.2,788.4 380.1,788.5 380.1,785.3 380.1,782.1 377,782.2 377,779 377,775.9 373.9,775.9 373.9,772.7 373.9,769.6 370.8,769.6 370.8,766.4 370.8,763.2 367.7,763.3 367.7,760.2 367.7,757.1 364.6,757.1 364.6,753.9 361.5,750.8 364.6,750.8 361.5,747.6 358.4,744.5 358.4,744.5 358.4,741.3 355.3,738.2 355.3,738.2 355.3,735L355.3,728.8 355.3,722.5 355.3,716.2 355.3,709.9 355.3,703.6 355.3,697.300000000001 355.3,691.000000000001 355.3,684.700000000001C358.4,681.600000000001 358.4,681.600000000001 358.4,678.400000000001 361.5,675.300000000001 358.4,675.300000000001 361.5,672.100000000001 364.6,668.900000000001 364.6,669.000000000001 364.6,665.800000000001 364.6,662.600000000001 367.7,662.700000000001 367.7,659.500000000001 367.7,656.300000000001 370.8,656.400000000001 370.8,653.200000000001 370.8,650.100000000001 373.9,650.100000000001 373.9,646.900000000001 373.9,643.800000000001 377,643.800000000001 377,640.600000000001 377,637.400000000001 380.1,637.500000000001 380.1,640.600000000001 380.1,637.500000000001 383.2,637.500000000001 383.2,634.400000000001 383.2,631.300000000001 386.3,631.300000000001 386.3,628.100000000001 386.3,624.900000000001 389.4,625.000000000001 389.4,621.800000000001 392.5,618.700000000001 392.5,618.700000000001 395.7,615.500000000001 398.9,612.300000000001 398.8,612.400000000001 402,609.200000000001 405.2,606.000000000001 408.3,606.100000000001 408.3,606.100000000001 411.4,603.000000000001 408.3,599.800000000001 411.4,599.800000000001 414.5,599.800000000001 414.5,596.700000000001 417.7,596.700000000001 420.9,596.700000000001 420.8,593.600000000001 424,593.600000000001 427.2,593.600000000001 427.1,590.500000000001 430.3,590.500000000001 433.5,590.500000000001 433.4,590.500000000001 436.6,587.400000000001 439.8,584.300000000001 442.9,587.400000000001 446,587.400000000001 449.1,587.400000000001 449.1,587.400000000001 452.3,584.300000000001 455.5,581.200000000001 455.4,581.200000000001 458.6,581.200000000001 461.7,578.100000000001 461.7,581.200000000001 464.9,578.100000000001 468.1,575.000000000001 468,575.000000000001 471.2,575.000000000001L483.7,575.000000000001 490,575.000000000001 496.3,575.000000000001 502.6,575.000000000001 508.9,575.000000000001 515.1,575.000000000001 521.4,575.000000000001 527.7,575.000000000001C530.8,575.000000000001 530.8,575.000000000001 534,578.100000000001 537.2,581.200000000001 537.1,578.100000000001 540.3,581.200000000001 543.5,584.300000000001 543.4,584.300000000001 546.6,584.300000000001 549.8,584.300000000001 549.7,587.400000000001 552.9,587.400000000001 556.1,587.400000000001 556,590.500000000001 559.2,590.500000000001 562.4,590.500000000001 562.3,593.600000000001 565.5,593.600000000001 568.7,593.600000000001 568.6,596.700000000001 571.8,596.700000000001 575,596.700000000001 574.9,599.800000000001 578.1,599.800000000001 581.3,599.800000000001 581.2,602.900000000001 584.4,602.900000000001 587.599999999999,602.900000000001 587.5,606.000000000001 590.699999999999,606.000000000001 590.699999999999,606.000000000001 590.699999999999,606.000000000001 593.8,609.100000000001 596.9,612.200000000001 596.9,612.200000000001 600.099999999999,615.400000000001 603.299999999999,618.600000000001 606.399999999999,618.500000000001 606.399999999999,621.700000000001 606.399999999999,624.900000000001 609.499999999999,624.800000000001 609.499999999999,628.000000000001 609.499999999999,631.200000000001 612.599999999999,631.100000000001 612.599999999999,634.300000000001 612.599999999999,637.400000000001 615.699999999999,637.400000000001 615.699999999999,640.500000000001 615.699999999999,643.600000000001 618.8,643.600000000001 618.8,646.800000000001 618.8,649.900000000001 621.9,649.900000000001 621.9,653.100000000001 621.9,656.200000000001 625,656.200000000001 625,659.400000000001 625,662.600000000001 628.1,662.500000000001 628.1,665.700000000001 628.1,668.900000000001 631.2,668.800000000001 631.2,672.000000000001 634.3,675.100000000001 631.2,675.100000000001 634.3,678.300000000001 637.4,681.500000000001 637.4,681.400000000001 637.4,684.600000000001 640.5,687.700000000001 640.5,687.700000000001 640.5,690.900000000001L640.5,697.200000000001 640.5,703.500000000001 640.5,709.800000000001 640.5,716.1 640.5,722.4 640.5,728.7 640.5,734.9 640.5,741.2C637.4,744.3 637.4,744.3 637.4,747.5 634.3,750.6 637.4,750.6 634.3,753.8 631.2,756.9 631.2,756.9 631.2,760.1 631.2,763.2 628.1,763.2 628.1,766.3 628.1,769.4 625,769.4 625,772.6 625,775.7 621.9,775.7 621.9,778.9 621.9,782 618.8,782 618.8,785.2 618.8,788.4 615.699999999999,788.3 615.699999999999,791.5 615.699999999999,794.7 612.599999999999,794.6 612.599999999999,797.8 612.599999999999,801 609.499999999999,800.9 609.499999999999,804.1 609.499999999999,807.3 606.399999999999,807.2 606.399999999999,810.4L600.099999999999,816.7C596.999999999999,819.8 596.999999999999,823 593.8,823 590.6,823 590.699999999999,826.1 587.5,826.1 584.3,826.1 584.4,829.2 581.2,829.2 578,829.2 578.1,832.3 574.9,832.3 571.7,832.3 571.8,835.4 568.6,835.4 565.4,835.4 565.5,838.5 562.3,838.5 559.1,838.5 559.2,841.6 556,841.6 552.8,841.6 552.9,844.7 549.7,844.7 546.5,844.7 546.6,847.8 543.4,847.8 540.3,850.9 540.3,847.8 537.1,850.9 533.9,854 534,850.9 530.8,854 527.6,857.1 527.7,857.1 524.5,857.1L518.2,857.1 511.9,857.1 505.7,857.1 499.4,857.1 490,857.1 483.7,857.1 477.4,857.1 471.1,857.1C468.1,854.1,468.1,857.2,465,854.1z" />

<glyph unicode="&#xe713;" glyph-name="facility1" d="M830.6,96.3L861.9,96.3 861.9,158.8 830.6,158.8 830.6,96.3z M736.9,96.3L768.2,96.3 768.2,158.8 736.9,158.8 736.9,96.3z M643.1,96.3L674.4,96.3 674.4,158.8 643.1,158.8 643.1,96.3z M330.6,96.3L361.9,96.3 361.9,158.8 330.6,158.8 330.6,96.3z M236.9,96.3L268.2,96.3 268.2,158.8 236.9,158.8 236.9,96.3z M143.1,96.3L174.4,96.3 174.4,158.8 143.1,158.8 143.1,96.3z M830.6,221.3L861.9,221.3 861.9,283.8 830.6,283.8 830.6,221.3z M736.9,221.3L768.2,221.3 768.2,283.8 736.9,283.8 736.9,221.3z M643.1,221.3L674.4,221.3 674.4,283.8 643.1,283.8 643.1,221.3z M330.6,221.3L361.9,221.3 361.9,283.8 330.6,283.8 330.6,221.3z M236.9,221.3L268.2,221.3 268.2,283.8 236.9,283.8 236.9,221.3z M143.1,221.3L174.4,221.3 174.4,283.8 143.1,283.8 143.1,221.3z M830.6,346.3L861.9,346.3 861.9,408.8 830.6,408.8 830.6,346.3z M736.9,346.3L768.2,346.3 768.2,408.8 736.9,408.8 736.9,346.3z M643.1,346.3L674.4,346.3 674.4,408.8 643.1,408.8 643.1,346.3z M330.6,346.3L361.9,346.3 361.9,408.8 330.6,408.8 330.6,346.3z M236.9,346.3L268.2,346.3 268.2,408.8 236.9,408.8 236.9,346.3z M143.1,346.3L174.4,346.3 174.4,408.8 143.1,408.8 143.1,346.3z M830.6,471.3L861.9,471.3 861.9,533.8 830.6,533.8 830.6,471.3z M736.9,471.3L768.2,471.3 768.2,533.8 736.9,533.8 736.9,471.3z M643.1,471.3L674.4,471.3 674.4,533.8 643.1,533.8 643.1,471.3z M330.6,471.3L361.9,471.3 361.9,533.8 330.6,533.8 330.6,471.3z M236.9,471.3L268.2,471.3 268.2,533.8 236.9,533.8 236.9,471.3z M143.1,471.3L174.4,471.3 174.4,533.8 143.1,533.8 143.1,471.3z M830.6,596.3L861.9,596.3 861.9,658.8 830.6,658.8 830.6,596.3z M736.9,596.3L768.2,596.3 768.2,658.8 736.9,658.8 736.9,596.3z M643.1,596.3L674.4,596.3 674.4,658.8 643.1,658.8 643.1,596.3z M330.6,596.3L361.9,596.3 361.9,658.8 330.6,658.8 330.6,596.3z M236.9,596.3L268.2,596.3 268.2,658.8 236.9,658.8 236.9,596.3z M143.1,596.3L174.4,596.3 174.4,658.8 143.1,658.8 143.1,596.3z M830.6,721.3L861.9,721.3 861.9,783.8 830.6,783.8 830.6,721.3z M736.9,721.3L768.2,721.3 768.2,783.8 736.9,783.8 736.9,721.3z M643.1,721.3L674.4,721.3 674.4,783.8 643.1,783.8 643.1,721.3z M330.6,721.3L361.9,721.3 361.9,783.8 330.6,783.8 330.6,721.3z M236.9,721.3L268.2,721.3 268.2,783.8 236.9,783.8 236.9,721.3z M143.1,721.3L174.4,721.3 174.4,783.8 143.1,783.8 143.1,721.3z M924.4,846.3L924.4,33.8 580.6,33.8 580.6,846.3 924.4,846.3z M361.9,908.4L361.9,846.3 424.4,846.3 424.4,784.3 455.7,784.3 455.7,700.6 424.4,700.6 424.4,33.8 80.6,33.8 80.6,700.6 49.4,700.6 49.4,784.1 80.7,784.1 80.7,846.5 143.2,846.5 143.2,908.4 361.9,908.4z M877.9,971.3L955.7,884.1 955.7,877.6 940,877.6 924.4,877.6 580.6,877.6 565,877.6 549.4,877.6 549.4,884.9 614.5,971.4 877.9,971.4z M518.1,895.2L518.1,846.2 549.4,846.2 549.4,2.5 955.7,2.5 955.7,846.3 987,846.3 987,896 892,1002.6 599,1002.6 518.1,895.2z M237.1,939.6L111.9,939.6 111.9,877.7 49.4,877.7 49.4,815.3 18.1,815.3 18.1,669.3 49.4,669.3 49.4,2.5 455.7,2.5 455.7,669.3 487,669.3 487,815.5 455.7,815.5 455.7,877.5 393.2,877.5 393.2,939.6 268.3,939.6 268.3,1002.5 237,1002.5 237,939.6z" />

<glyph unicode="&#xe714;" glyph-name="facility2" d="M874.5,196.2L874.5,133.7 812,133.7 812,196.2 874.5,196.2z M774.5,196.2L774.5,133.7 712,133.7 712,196.2 774.5,196.2z M674.5,196.2L674.5,133.7 612,133.7 612,196.2 674.5,196.2z M424.5,196.2L424.5,133.7 362,133.7 362,196.2 424.5,196.2z M324.5,196.2L324.5,133.7 262,133.7 262,196.2 324.5,196.2z M221.3,196.2L221.3,133.7 158.8,133.7 158.8,196.2 221.3,196.2z M874.5,324.4L874.5,261.9 812,261.9 812,324.4 874.5,324.4z M774.5,324.4L774.5,261.9 712,261.9 712,324.4 774.5,324.4z M674.5,324.4L674.5,261.9 612,261.9 612,324.4 674.5,324.4z M424.5,324.4L424.5,261.9 362,261.9 362,324.4 424.5,324.4z M324.5,324.4L324.5,261.9 262,261.9 262,324.4 324.5,324.4z M221.3,324.4L221.3,261.9 158.8,261.9 158.8,324.4 221.3,324.4z M874.5,452.5L874.5,390 812,390 812,452.5 874.5,452.5z M774.5,452.5L774.5,390 712,390 712,452.5 774.5,452.5z M674.5,452.5L674.5,390 612,390 612,452.5 674.5,452.5z M424.5,452.5L424.5,390 362,390 362,452.5 424.5,452.5z M324.5,452.5L324.5,390 262,390 262,452.5 324.5,452.5z M221.3,452.5L221.3,390 158.8,390 158.8,452.5 221.3,452.5z M874.5,580.6L874.5,518.1 812,518.1 812,580.6 874.5,580.6z M774.5,580.6L774.5,518.1 712,518.1 712,580.6 774.5,580.6z M674.5,580.6L674.5,518.1 612,518.1 612,580.6 674.5,580.6z M424.5,580.6L424.5,518.1 362,518.1 362,580.6 424.5,580.6z M324.5,580.6L324.5,518.1 262,518.1 262,580.6 324.5,580.6z M221.3,580.6L221.3,518.1 158.8,518.1 158.8,580.6 221.3,580.6z M874.5,711.9L874.5,649.4 812,649.4 812,711.9 874.5,711.9z M774.5,711.9L774.5,649.4 712,649.4 712,711.9 774.5,711.9z M674.5,711.9L674.5,649.4 612,649.4 612,711.9 674.5,711.9z M424.5,711.9L424.5,649.4 362,649.4 362,711.9 424.5,711.9z M324.5,711.9L324.5,649.4 262,649.4 262,711.9 324.5,711.9z M221.3,711.9L221.3,649.4 158.8,649.4 158.8,711.9 221.3,711.9z M74.5,746.3L105.7,746.3 105.7,2.5 474.5,2.5 474.5,746.3 505.8,746.3 505.8,786.9 74.5,786.9 74.5,746.3z M830.7,833.7L830.7,771.2 768.2,771.2 768.2,833.7 830.7,833.7z M727.6,833.7L727.6,771.2 665.1,771.2 665.1,833.7 727.6,833.7z M830.7,946.2L830.7,883.7 768.2,883.7 768.2,946.2 830.7,946.2z M727.6,946.2L727.6,883.7 665.1,883.7 665.1,946.2 727.6,946.2z M593.2,961.9L615.1,961.9 615.1,752.5 558.9,752.5 558.9,2.5 930.6,2.5 930.6,752.5 874.4,752.5 874.4,961.9 896.3,961.9 896.3,1002.5 593.2,1002.5 593.2,961.9z" />

<glyph unicode="&#xe715;" glyph-name="academics" d="M792.4,483.4C792.4,469.8 781.3,458.7 767.7,458.7 754.1,458.7 743.1,469.8 743.1,483.4 743.1,497 754.1,508.1 767.7,508.1 781.3,508.1 792.3,497.1 792.4,483.4z M434.4,539.3C434.4,525.7 423.3,514.6 409.7,514.6 396.1,514.6 385.1,525.7 385.1,539.3 385.1,542.7 385.8,546 387,548.9L387.8,550.5 398.6,561.3 400.1,562C403.1,563.2 406.3,563.9 409.7,563.9 423.2,563.9 434.4,552.9 434.4,539.3z M589.4,640.6C589.4,627 578.4,615.9 564.8,615.9 551.2,615.9 540.1,627 540.1,640.6 540.1,654.2 551.2,665.2 564.8,665.2 578.4,665.2 589.4,654.1 589.4,640.6z M261.1,720.9C261.1,707.3 250,696.2 236.4,696.2 222.8,696.2 211.7,707.3 211.7,720.9 211.7,734.5 222.8,745.6 236.4,745.6 250,745.6 261.1,734.6 261.1,720.9z M180.6,721C180.6,690.3 205.6,665.2 236.4,665.2 242.2,665.2 247.8,666.1 253,667.7L256.4,668.9 360.2,565.3 358.2,561.2C355.4,554.5 353.8,547.2 353.8,539.5 353.8,508.8 378.9,483.7 409.6,483.7 440.4,483.7 465.4,508.7 465.4,539.5 465.4,541.4 465.3,543.3 465.1,545.2L464.6,548.6 533,594.9 533.6,594.5C542.5,588.4 553.3,584.9 564.8,584.9 570.6,584.9 576.2,585.8 581.4,587.4L585.5,588.9 714.2,499.3 713.1,494.9C712.4,491.3 712,487.5 712,483.7 712,453 737,427.9 767.8,427.9 798.6,427.9 823.6,452.9 823.6,483.7 823.6,514.5 798.6,539.5 767.8,539.5 754.3,539.5 741.9,534.7 732.3,526.7L731,525.5 610.9,609.1 611.2,609.4C617.2,618.3 620.7,629.1 620.7,640.6 620.7,671.4 595.7,696.4 564.9,696.4 534.1,696.4 509.1,671.3 509.1,640.6 509.1,634.8 510,629.2 511.6,624L513.4,619 451,576.7 449.2,578.7C439.1,588.8 425.2,595.1 409.8,595.1 400.2,595.1 391.1,592.7 383.2,588.4L381.9,587.6 281.4,688 282.7,689.8C288.7,698.7 292.2,709.5 292.2,721 292.2,751.8 267.2,776.8 236.4,776.8 205.7,776.8 180.6,751.7 180.6,721z M891.8,831.3L891.8,301.8 113.1,301.8 113.1,831.3 891.8,831.3z M50.8,239.5L409.1,239.5 206.8,47.9 249.6,2.6 499.7,239.5 504.9,239.5 755.4,2.6 798.2,47.9 595.6,239.5 954.1,239.5 954.1,893.6 50.8,893.6 50.8,239.5z M35.3,940.3L969.7,940.3 969.7,1002.6 35.3,1002.6 35.3,940.3z" />

<glyph unicode="&#xe716;" glyph-name="finanical1" d="M205.9,488.7C201,419.4 204.6,349.4 204.6,277.6 334.9,266.3 458.8,243.3 581.5,248.8 677.6,253.1 777.2,278.6 866.6,318.9 889.3,329.1 894,360.7 888.1,375.4 878.4,399.3 851.8,406.5 834.1,404.4 794.8,399.8 757,383.1 718.1,373.4 699.1,368.7 678.3,364.6 659.4,367.4 603.2,375.6 547.6,387.3 491.8,397.7 491.3,401.2 490.9,404.8 490.4,408.3 522,417.2 553.8,425.6 585.1,435.2 617.3,445 632.1,467.6 624.3,500.5 616.2,534.7 590.7,543.7 558.6,539 525.6,534.2 492.3,523.3 459.8,525.6 422,528.1 385,541.9 347.8,551.1 338.7,553.4 329,554.5 319.2,554.6 266.2,555.2 208.6,526.4 205.9,488.7z M2.6,512.4C4,450.5 2.5,388.4 3.1,326.4 4.4,205.7 -15.5,219.8 114.1,217.8 148.2,217.3 163.5,229.1 162,264.4 160.3,304.6 161.6,344.9 161.6,385.1 161.6,405.2 161.9,425.3 161.5,445.4 158.6,573.7 185.6,555.4 45.5,557.9 11.7,558.6 1.9,543.8 2.6,512.4z M852.7,747.7L873.1,747.7 873.1,724.9C888.6,724.4,899.1,720.7,907,716.8L900.3,694.2C894.4,696.8 883.6,702.5 866.9,702.5 849.7,702.5 843.6,693.6 843.6,685.3 843.6,675.2 852.4,669.5 873.3,661.2 900.8,650.9 913.1,637.7 913.1,615.8 913.1,594.9 898.6,576.5 871.6,572.1L871.6,546.8 851.4,546.8 851.4,570.6C835.9,571.1,820.4,575.5,811.6,581.4L818.2,604.5C827.8,598.9 841.5,593.7 856.5,593.7 872,593.7 882.5,601.3 882.5,613.1 882.5,624.1 873.9,631.3 855.7,637.9 829.9,647.3 813.2,659.1 813.2,681.9 813.2,703 827.9,719.3 852.7,723.7L852.7,747.7 852.7,747.7z M721.7,647.3C721.7,569.8 784.5,507 862.1,507 939.7,507 1002.5,569.9 1002.5,647.4 1002.5,724.9 939.7,787.8 862.1,787.8 784.5,787.8 721.7,724.9 721.7,647.3z" />

<glyph unicode="&#xe717;" glyph-name="finanical2" d="M937,392.7C924.4,329.2 874.5,281.6 815,281.6 755.5,281.6 705.6,329.2 693,392.7L937,392.7z M312,392.7C299.4,329.2 249.5,281.6 190,281.6 130.5,281.6 80.6,329.2 68,392.7L312,392.7z M301.8,455.6L77.2,455.6 185.9,779.1 301.8,455.6z M926.8,455.6L702.2,455.6 810.9,779.1 926.8,455.6z M438,905.7L184.9,905.7 170.8,905.1C159.6,900.7,157.9,887.3,153.7,874.6L4.1,434.3C3.3,431.9,2.8,429.5,2.6,427L2.6,425.3 2.5,423.9C2.5,310.9 86.6,219 190,219 290.1,219 372.2,305.3 377.3,413.3L377.5,420.1 377.6,421.1 377.6,421.9 377.6,423.8C377.6,429.2,376.2,434.3,373.8,438.7L372.3,441.2 227.3,843 438,843 438,80.6 250.5,80.6 250.5,18.1 438,18.1 500.5,18.1 688,18.1 688,80.6 500.5,80.6 500.5,843.1 766.5,843.1 629.1,434.3C628.3,431.9,627.8,429.5,627.6,427L627.6,425.2 627.5,423.9C627.5,310.9 711.6,219 815,219 918.4,219 1002.5,310.9 1002.5,423.9L1002.4,425 1002.3,427.6C1002,430.1,1001.5,432.5,1000.6,434.9L839.3,884.9C835.1,896.7,823.2,904.9,811.8,905.6L809.8,905.6 809.8,905.6 500.5,905.6 500.5,986.8 438,986.8 438,905.7z" />

<glyph unicode="&#xe718;" glyph-name="document1" d="M584.5,391.2C584.2,344.3 546.1,306.7 499.2,307 452.5,307.3 414.9,345.4 415.2,392.3 415.5,439.1 453.7,476.7 500.5,476.4 547.3,476.1 584.9,438 584.5,391.2z M449.9,589.8L442.7,545.1C426.1,539,410.6,530.2,397.2,519.3L354.9,535.9C330.9,511.7,312.9,481.4,303.4,447.5L338.6,418.9C337.2,410.3 336.3,401.7 336.1,392.8 336.1,383.9 336.9,375.3 338.3,366.7L302.7,338.4C311.9,304.5,329.6,273.8,353.3,249.3L395.6,265.4C409.1,254.3,424.4,245.4,440.8,239L447.5,194.2C463.9,189.9 480.9,187.3 498.7,187.1 516.3,187.1 533.5,189.4 549.9,193.5L557.2,238.2C573.7,244.5,589,253.1,602.6,264L644.8,247.4C668.8,271.6,686.8,301.9,696.3,335.8L661.2,364.6C662.8,373 663.7,381.8 663.7,390.7 663.9,399.4 663,408.2 661.7,416.6L697.1,444.9C687.9,479,670.4,509.5,646.5,534L604.2,518.1C590.8,529.2,575.7,538,559.1,544.4L552.4,589.2C536,593.5 519,596.2 501.3,596.2 483.5,596.4 466.4,594 449.9,589.8z M615.9,927L615.9,736.9 812.3,736.9 812.3,78.1 192.3,78.1 192.3,927 615.9,927z M121.1,2.5L883.8,2.5 883.8,779.8 830,832.5 656.3,1002.5 616,1002.5 121.1,1002.5 121.1,2.5z" />

<glyph unicode="&#xe719;" glyph-name="document2" d="M668,363.2L667.9,363.2 667.9,328.1C666.5,313.6 657.9,287.4 614.5,279.8 575.6,273 456.6,279.8 456.6,279.8L456.6,342.5 324.1,237.9 456.7,131.1 456.7,198.4 614.6,200.7C614.6,200.7,730.8,196.1,744.7,309.9L744.5,310C744.6,310.8,744.7,311.6,744.7,312.4L744.7,363.2 668,363.2 668,363.2z M612.3,544L454.3,541.7C454.3,541.7,338.1,546.4,324.2,432.5L324.4,432.4C324.3,431.6,324.2,430.8,324.2,430L324.2,381.8 400.9,381.8 400.9,414.3C402.3,428.8 410.9,455 454.3,462.6 493.2,469.4 612.3,462.6 612.3,462.6L612.3,399.9 744.7,504.5 612.3,611.4 612.3,544z M797.7,918.2C809.3,918.2,818.8,908.7,818.8,897.1L818.8,107.9C818.8,96.2,809.3,86.8,797.7,86.8L207.2,86.8C195.6,86.8,186.1,96.3,186.1,107.9L186.1,630.4 300.9,627.3C435,612.6,442.3,734.2,442.3,734.2L448,918.2 797.7,918.2z M367.5,923.5L367.3,923.5 365.4,921.4 364.5,921.4 303.2,856.5 361.7,918.2 362.3,918.2 143.5,688.2 143.5,687 101.8,643 101.8,107.9C101.8,49.7,149,2.5,207.2,2.5L797.6,2.5C855.9,2.5,903.1,49.7,903.1,107.9L903.1,897.1C903.1,955.3,855.8,1002.5,797.6,1002.5L442.5,1002.5 367.5,923.5z" />

<glyph unicode="&#xe71a;" glyph-name="communication1" d="M2.5,74.8L201.9,74.8C203.2,84.6 204.3,93.8 204.7,102.1 207.8,131.6 215.1,158.8 226.8,182.8 217.5,183.7 207.6,185.1 197,185.1L118.5,185.1C55.7,185.1,10.2,136.5,2.5,74.8z M764.3,188.7C775.7,164.8 784.2,137.8 786.3,108.6 787.4,100 788.9,90.4 790.6,80L1002.5,80C994,143.4,947.9,193.4,883.3,193.4L802.6,193.4C788.9,193.4,776.1,192,764.3,188.7z M279.4,102.3C278.6,93.9,277.5,84.5,276.2,74.8L721.5,74.8C720.1,84.6 718.9,94 718,102.3 708.7,191.9 644.3,264.5 554,264.5L443.4,264.5C352.7,264.5,287.7,192,279.4,102.3z M33,323.9C33,254.2 89.2,199.1 157.7,199.1 226.2,199.1 282.4,254.1 282.4,323.9 282.4,391.1 226.2,448.6 157.7,448.6 89.2,448.6 33,391.1 33,323.9z M714.7,336C714.7,264.3 772.6,207.7 842.9,207.7 913.4,207.7 971.2,264.3 971.2,336 971.2,405.1 913.3,464.2 842.9,464.2 772.6,464.2 714.7,405.1 714.7,336z M323,457.8C323,360.3 401.3,283.4 498.7,283.4 594.8,283.4 674.4,360.3 674.4,457.8 674.4,555.1 594.8,632.3 498.7,632.3 401.3,632.3 323,555.1 323,457.8z M61.8,699.7L61.9,631.4C61.9,616.7,73.7,604.7,88.6,604.7L282.3,604.9C296.5,604.9,309.1,616.1,309.1,631.7L309.2,631.8 309,700 61.8,699.7z M680,700.5L680.2,632.2C680.2,617.5,692,605.5,706.9,605.5L895.2,605.7C909.4,605.7,922.1,616.9,922.1,632.5L922.1,632.6 921.9,700.8 680,700.5z M480,930.1C133.2,925.4,66.2,778.1,61.6,737.8L308.9,737.9C308.9,773.2 351,781.2 394.2,785.9 455.8,792.5 517.8,791.1 567.8,786.1 643.4,778.5 680.1,771.8 680.1,738.1L921.4,738.4C922.2,778.6 847.6,930.2 496.9,930.2 491.3,930.2 485.7,930.2 480,930.1z" />

<glyph unicode="&#xe71b;" glyph-name="communication2" d="M580.6,693.1L580.6,611.8 502.5,611.8 502.5,693.1 580.6,693.1z M421.3,693.1L421.3,611.8 343.2,611.8 343.2,693.1 421.3,693.1z M258.8,693.1L258.8,611.8 180.7,611.8 180.7,693.1 258.8,693.1z M821.3,633.8C821.3,452.5,621.3,305.7,374.4,305.7L365,305.7C430.6,246.3 530.6,205.7 646.3,205.7 680.7,205.7 715,212 746.3,218.2L936.9,86.9 849.4,255.6C943.2,302.5 1002.5,380.6 1002.5,468.1 1002.5,568.1 924.4,655.6 811.9,699.3 818.1,677.5 821.3,658.7 821.3,633.8z M2.5,643.1C2.5,549.3,68.1,465,165,418.1L71.3,240 274.4,380.6C308.8,374.3 343.2,368.1 380.7,368.1 590.1,368.1 758.8,490 758.8,643.1 758.8,793.1 590,918.1 380.7,918.1 171.3,918.1 2.5,793.1 2.5,643.1z" />

<glyph unicode="&#xe71c;" glyph-name="hostel1" d="M2.5,465L127.5,465 127.5,121.3 424.4,121.3 424.4,361.9 565,361.9 565,121.3 861.9,121.3 861.9,465 1002.5,465 799.4,630.6 799.4,852.5 690,852.5 690,724.4 496.2,883.8 2.5,465z" />

<glyph unicode="&#xe71d;" glyph-name="hostel2" d="M405.6,493.1L405.6,368.1 280.6,368.1 280.6,493.1 405.6,493.1z M208.8,496.2L208.8,371.2 83.8,371.2 83.8,496.2 208.8,496.2z M552.5,5.6L693.1,5.6 693.1,296.2 874.3,296.2 874.3,5.6 1002.4,5.6 1002.4,580.6 552.4,580.6 552.4,5.6z M405.6,693.1L405.6,568.1 280.6,568.1 280.6,693.1 405.6,693.1z M208.8,696.3L208.8,571.3 83.8,571.3 83.8,696.3 208.8,696.3z M552.5,640L1002.5,640 1002.5,699.4 552.5,699.4 552.5,640z M405.6,893.1L405.6,768.1 280.6,768.1 280.6,893.1 405.6,893.1z M208.8,896.2L208.8,771.2 83.8,771.2 83.8,896.2 208.8,896.2z M2.5,5.6L486.9,5.6 486.9,999.4 2.5,999.4 2.5,5.6z" />

<glyph unicode="&#xe71e;" glyph-name="admission1" d="M600.2,44.2L405,42.6 342.4,309.9C111.9,284.3,35.2,2.6,35.2,2.6L969.9,2.6C944.2,258.7,675.3,322.7,675.3,322.7L600.2,44.2z M158.7,850.7C146.4,827.2 124.4,575.7 124.4,575.7 124.4,575.7 166.3,528.5 196.6,576.8L178.9,848.5C178.9,848.5 175.1,860.7 168.8,860.7 165.9,860.7 162.5,858.1 158.7,850.7z M172.9,925.5C172.9,925.5,160.6,923.6,172.7,918.8L345.7,866.8 345.7,834.9C345.7,834.9 346.7,830 354.2,826.6 284.2,780.5 237.9,701.3 237.9,611.1 237.9,468.6 353.5,353.1 495.8,353.1 638.3,353.1 753.8,468.6 753.8,611.1 753.8,701.1 707.9,780.2 638.2,826.2 641.5,827.7 645.7,830.4 644.7,834.9L644.7,855.2 822.6,901.5C822.6,901.5,829.7,909.8,816.4,915.2L524.2,1002.6 172.9,925.5z" />

<glyph unicode="&#xe71f;" glyph-name="admission2" d="M208.9,549.1L208.9,392.1C208.9,392.1 210.7,373.3 236.2,364.8 236.2,364.8 396.7,308.5 485.5,310.2 485.5,310.2 674.9,298.3 825.1,364.8 825.1,364.8 852.3,371.6 849,392.1L849,549.1C849,549.1,839.1,565.3,822,559.8L555.3,491.1C555.3,491.1,509.2,474,454.6,497.9L236.1,562.8C236.1,562.8 231.5,564.4 226.1,564.4 219.1,564.3 210.7,561.6 208.9,549.1z M82.4,600.4C63.7,564.5 30.4,182 30.4,182 30.4,182 94.2,110.3 140.3,183.7L113.2,596.9C113.2,596.9 107.6,615.4 97.9,615.4 93.5,615.4 88.3,611.5 82.4,600.4z M10.8,722.3C10.8,722.3,-7.9,718.9,10.8,712.1L498.9,580.7C498.9,580.7,528.9,573,541.7,580.7L999.8,713.8C999.8,713.8,1010.2,726.6,989.6,734.3L541.7,854.6 10.8,722.3z" />

<glyph unicode="&#xe720;" glyph-name="timetable1" d="M536.8,108.5L641,108.5 641,216 536.8,216 536.8,108.5z M363,108.5L467.2,108.5 467.2,216 363,216 363,108.5z M189.3,108.5L293.5,108.5 293.5,216 189.3,216 189.3,108.5z M710.5,251.1L814.7,251.1 814.7,358.5 710.5,358.5 710.5,251.1z M536.8,251.1L641,251.1 641,358.5 536.8,358.5 536.8,251.1z M363,251.1L467.2,251.1 467.2,358.5 363,358.5 363,251.1z M189.3,251.1L293.5,251.1 293.5,358.5 189.3,358.5 189.3,251.1z M710.5,395.4L814.7,395.4 814.7,502.8 710.5,502.8 710.5,395.4z M536.8,395.4L641,395.4 641,502.8 536.8,502.8 536.8,395.4z M363,395.4L467.2,395.4 467.2,502.8 363,502.8 363,395.4z M189.3,395.4L293.5,395.4 293.5,502.8 189.3,502.8 189.3,395.4z M710.5,537.3L814.7,537.3 814.7,644.7 710.5,644.7 710.5,537.3z M536.8,537.3L641,537.3 641,644.7 536.8,644.7 536.8,537.3z M363,537.3L467.2,537.3 467.2,644.7 363,644.7 363,537.3z M940,700.8L940,65 65,65 65,700.8 940,700.8z M190,842.2L190,815 252.5,815 252.5,842.2 783.8,842.2 783.8,815 846.3,815 846.3,842.2 940,842.2 940,763.3 65,763.3 65,842.2 190,842.2z M190,904.7L2.5,904.7 2.5,2.5 1002.5,2.5 1002.5,904.7 846.3,904.7 846.3,1002.5 783.8,1002.5 783.8,904.7 252.5,904.7 252.5,1002.5 190,1002.5 190,904.7z" />

<glyph unicode="&#xe721;" glyph-name="discipline1" d="M908.5,554.2L730,228.4C726.9,231.5,720.6,231.5,714.3,231.5L567.1,231.5 441.8,410.1C438.7,416.4,435.5,419.5,432.4,425.8L429.3,429C426.2,432.1 423,435.3 419.9,438.4 394.9,463.5 360.4,479.1 322.8,479.1L153.6,479.1C78.4,479.1,15.8,419.6,15.8,344.4L15.8,34.2 463.8,34.2 463.8,190.8 492,150.1C498.3,140.7,507.7,134.4,517.1,131.3L520.2,131.3 526.5,128.1 529.6,128.1 532.7,128.1 535.8,128.1 714.4,128.1C739.5,128.1 761.4,153.2 761.4,181.4 761.4,190.8 758.2,200.2 755.1,206.4L939.9,541.6C946.2,547.9 943,560.4 933.7,563.5 930.5,566.6 927.4,566.6 924.3,566.6 917.9,566.7 911.7,563.6 908.5,554.2z M971.2,576.1L964.9,569.8 974.3,566.7 977.4,557.3 983.7,566.7 993.1,566.7 986.8,573 989.9,582.4 980.5,579.3 971.1,585.6 971.1,576.1z M914.8,607.4L902.3,601.1 914.8,594.8 914.8,585.4 924.2,594.8 939.9,591.7 933.7,604.2 939.9,616.7 924.2,613.6 914.8,623 914.8,607.4z M990,623.1L983.7,620 990,616.9 993.1,610.6 996.3,616.9 1002.6,616.9 999.5,623.1 1002.6,629.4 996.3,626.3 990,629.4 990,623.1z M958.7,654.4L952.4,651.3 958.7,648.1 961.8,641.9 968.1,648.1 977.5,648.1 974.4,654.4 980.7,660.6 971.3,657.5 965,663.7 958.7,654.4z M222.5,667C181.8,645.1 141.1,635.7 106.6,635.7 97.2,635.7 87.8,638.9 81.6,638.9 94.1,579.4 147.4,532.4 213.2,532.4 285.2,532.4 344.8,595.1 347.9,667.1 347.9,698.4 335.4,726.6 319.7,748.5 297.7,720.2 263.2,688.9 222.5,667z M109.7,892.5C72.1,873.7,40.8,864.3,18.9,864.3L9.5,864.3 62.8,760.9C34.6,732.7 25.2,701.4 34.6,679.5 56.5,638.8 134.9,638.8 216.3,679.5 294.6,720.2 341.6,782.9 322.8,823.6 310.3,845.5 279,854.9 238.2,851.8L188.1,952C178.6,930.1,141.1,905,109.7,892.5z M81.6,942.6C31.4,920.7 -3,889.4 3.2,876.8 9.5,864.3 53.3,873.7 103.4,898.7 153.5,923.8 188,952 181.7,964.5 178.6,970.8 175.4,970.8 166,970.8 147.3,970.8 116,961.4 81.6,942.6z" />

<glyph unicode="&#xe722;" glyph-name="discipline2" d="M938.1,105.1C939.7,103.6 940,101.9 940,100.6 940,99.4 939.8,97.7 938.2,96.1L908.6,66.8C905.6,63.9,902.9,63.9,900,66.9L490,497.2 507.6,514.7 938.1,105.1z M694.8,716.1L621.4,642.6 604.3,659.7C592.5,671.5,571.7,671.5,560,659.7L344.5,443.7C332.3,431.6,332.3,411.8,344.5,399.6L361.7,382.4 288.3,308.8 77.8,519.8 151.2,593.4 168.3,576.3C180.1,564.5,200.9,564.5,212.6,576.3L428.1,792.3C440.3,804.4,440.3,824.2,428.1,836.4L410.9,853.6 484.3,927.1 694.8,716.1z M462.2,993.4L344.6,875.5C332.4,863.3,332.4,843.6,344.6,831.4L361.8,814.2 190.5,642.5 173.4,659.6C161.6,671.4,140.8,671.4,129.1,659.6L11.6,541.8C-0.6,529.6,-0.6,509.9,11.6,497.7L266.3,242.5C272.1,236.6 280.1,233.3 288.4,233.3 296.7,233.3 304.7,236.6 310.5,242.5L428.1,360.3C440.3,372.4,440.3,392.2,428.1,404.4L410.9,421.6 444,454.8 854.7,23.9C867.6,10.4 885.6,2.6 904.3,2.6 922.4,2.6 939.6,9.7 952.5,22.5L982.1,51.8C995.4,65 1002.6,82.6 1002.4,101.4 1002.3,120.2 994.6,137.6 981.1,150.5L549.7,560.8 582.2,593.4 599.3,576.3C611.1,564.5,631.9,564.5,643.6,576.3L761,694.1C773.2,706.3,773.2,726,761,738.2L506.4,993.4C500.6,999.3 492.6,1002.6 484.3,1002.6 476,1002.6 468,999.3 462.2,993.4z" />

<glyph unicode="&#xe723;" glyph-name="result1" d="M799.4,50.6L746.6,92.8C740.9,97.4,732.8,97.4,727.1,92.8L674.4,50.6 674.4,111.8 674.4,204.6 675.7,204.7C722.3,208.3,764.8,226.3,798.8,254.4L799.4,254.9 799.4,50.6z M519.6,253.7C553.5,226,595.7,208.2,641.8,204.7L643.1,204.6 643.1,144.3 590.3,186.5C584.6,191.1,576.5,191.1,570.8,186.5L518.1,144.3 518.1,255 519.6,253.7z M237.9,346.2C237.9,328.9 251.9,314.9 269.1,314.9 286.3,314.9 300.4,328.9 300.4,346.2 300.4,363.5 286.4,377.5 269.1,377.5 251.8,377.5 237.9,363.5 237.9,346.2z M820.3,424.4C820.3,335.3 747.8,262.8 658.8,262.8 569.8,262.8 497.3,335.3 497.3,424.4 497.3,513.5 569.8,585.9 658.8,585.9 747.8,585.9 820.3,513.4 820.3,424.4z M237.9,596.2C237.9,578.9 251.9,564.9 269.1,564.9 286.3,564.9 300.4,578.9 300.4,596.2 300.4,613.5 286.4,627.5 269.1,627.5 251.8,627.5 237.9,613.5 237.9,596.2z M438.5,424.4C438.5,373.7,455.7,327,484.5,289.8L486.9,286.9 486.9,111.9C486.9,105.9 490.3,100.4 495.7,97.8 501.2,95.2 507.5,95.9 512.3,99.6L580.6,154.3 643.1,104.3 643.1,18.1C643.1,12.1 646.5,6.6 651.9,4 657.4,1.4 663.8,2.1 668.5,5.8L736.8,60.5 805.2,5.8C808,3.5 811.5,2.4 815,2.4 817.3,2.4 819.6,2.9 821.8,4 827.2,6.60000000000001 830.6,12.1 830.6,18.1L830.6,283.7C830.6,284.2,830.6,284.8,830.5,285.3L830.3,286.5 835.1,292.7C862.7,329.4 879,375 879,424.4 879,545.9 780.2,644.7 658.7,644.7 537.2,644.7 438.5,545.8 438.5,424.4z M237.9,847.2C237.9,829.9 251.9,815.9 269.1,815.9 286.3,815.9 300.4,829.9 300.4,847.2 300.4,864.5 286.4,878.5 269.1,878.5 251.8,878.5 237.9,864.5 237.9,847.2z M830.6,940L830.6,752.5 174.4,752.5 174.4,940 830.6,940z M111.9,971.2L111.9,221.2C111.9,203.9,125.9,189.9,143.1,189.9L430.9,189.9 430.9,251.5C430.7,251.8,430.4,252.1,430.1,252.4L174.4,252.4 174.4,440 373.1,440C374.3,461.6,377.7,482.5,383.4,502.5L174.4,502.5 174.4,690 830.7,690 830.7,653C854.7,634.9,875.9,613.2,893.2,588.6L893.2,971.3C893.2,988.6,879.2,1002.6,861.9,1002.6L143.1,1002.6C125.9,1002.5,111.9,988.5,111.9,971.2z" />

<glyph unicode="&#xe724;" glyph-name="project 1" d="M469.5,276.5C479.3,271.2 490.6,268.1 502.5,268.1 514.4,268.1 525.7,271.1 535.5,276.5L538.8,278.5 560.6,191.4 444.4,191.4 466.2,278.5 469.5,276.5z M540.6,337.4C540.6,316.4 523.5,299.3 502.5,299.3 481.5,299.3 464.4,316.4 464.4,337.4 464.4,358.4 481.5,375.5 502.5,375.5 523.5,375.5 540.6,358.4 540.6,337.4z M433.2,337.4C433.2,327.8,435.1,318.7,438.7,310.4L441,305.6 440.6,304.4 409.3,179.4C408.1,174.7 409.2,169.8 412.1,166 415.1,162.2 419.6,160 424.4,160L580.7,160C585.5,160 590.1,162.2 593,166 595.9,169.8 597,174.7 595.8,179.4L564.5,304.4 564.1,305.7 566.4,310.4C569.9,318.7 571.9,327.8 571.9,337.4 571.9,375.7 540.8,406.7 502.6,406.7 464.3,406.8 433.2,375.7 433.2,337.4z M940,440L940,127.5 65,127.5 65,440 908.8,440 940,440z M877.5,627.5L877.5,502.5 96.3,502.5 96.3,559.9 98,565 600.8,565C612.7,565,623.6,571.8,628.8,582.5L650.9,627.5 877.5,627.5z M815,752.5L815,690 631.4,690C619.5,690,608.6,683.2,603.4,672.5L581.3,627.5 565,627.5 158.8,627.5 158.8,690 190,690 533.7,690 584.7,690C597.3,690,608.6,697.5,613.5,709.1L631.8,752.5 815,752.5z M752.5,877.5L752.5,815 611.1,815C598.5,815,587.2,807.5,582.3,795.9L564,752.5 533.7,752.5 221.3,752.5 221.3,846.3 569.5,846.3C579.6,846.3,589.1,851.2,595,859.4L607.8,877.5 752.5,877.5z M566.2,926.9L553.4,908.8 190,908.8C172.7,908.8,158.7,894.8,158.7,877.5L158.7,752.5 127.5,752.5C110.2,752.5,96.2,738.5,96.2,721.2L96.2,627.4 65,627.4C47.7,627.4,33.7,613.4,33.7,596.1L33.7,570 4.2,481.5 3.9,480.6C3.3,478.6,2.9,476.6,2.7,474.5L2.7,474.1 2.7,473.9 2.7,473.1 2.6,471.3 2.6,96.3C2.5,79,16.5,65,33.8,65L971.3,65C988.6,65,1002.6,79,1002.6,96.3L1002.6,471.3 1002.6,471.7 1002.6,472 1002.5,472.8 1002.4,474.4 1002.3,475.3 1002.3,475.8 1002.2,476.3 1002,477.5 1001.6,479.1 1001.5,479.6 1001.4,479.8 1001.2,480.5C1000.9,481.5,1000.5,482.4,1000.2,483.4L1000.1,483.7 948,608.4C946.4,612.4,944,615.8,941.1,618.7L940.1,619.6 940.1,658.8C940.1,676.1,926.1,690.1,908.8,690.1L877.6,690.1 877.6,783.9C877.6,801.2,863.6,815.2,846.3,815.2L815,815.2 815,909C815,926.3,801,940.3,783.7,940.3L591.7,940.3C581.5,940,572.1,935.1,566.2,926.9z" />

<glyph unicode="&#xe725;" glyph-name="project2" d="M265,600.9L265,500.9C265,500.9 330.6,491.5 333.8,550.9 333.8,550.9 336.9,604 283.8,604 277.5,604.1 271.2,604.1 265,600.9z M318.1,657.2C402.5,657.2 399.4,563.4 399.4,563.4 399.4,425.9 265,447.8 265,447.8L265,341.6 215,341.6 215,657.2 318.1,657.2z M605.6,738.4L858.7,738.4C883.7,738.4,886.8,716.5,886.8,716.5L880.5,535.2 964.9,532.1 858.8,419.7 752.5,532.2 827.5,532.2 827.5,676 602.5,676 602.5,372.8 602.5,363.4 702.5,457.2 808.8,344.7 696.3,238.4 602.5,338.4 602.5,325.9 602.5,144.7 974.4,144.7C999.4,144.7,1002.5,169.7,1002.5,169.7L1002.5,829.1C1002.5,851 986.9,854.1 980.6,854.1 980.2,854.1 979.9,854.1 979.6,854.1 979.3,854.1 979.1,854.1 978.9,854.1 978.7,854.1 978.6,854.1 978.5,854.1 978.4,854.1 978.4,854.1 978.4,854.1L605.6,854.1 605.6,738.4z M2.5,885.3L2.5,122.8 583.8,22.8 583.8,982.2 2.5,885.3z" />

<glyph unicode="&#xe726;" glyph-name="medical1" d="M543.1,649.4C555.6,649.4,568.1,636.9,568.1,624.4L568.1,505.6 686.8,505.6C699.3,505.6,711.8,493.1,711.8,480.6L711.8,396.2C711.8,383.7,699.3,371.2,686.8,371.2L568.1,371.2 568.1,252.5C568.1,240,555.6,227.5,543.1,227.5L461.8,227.5C449.3,227.5,436.8,240,436.8,252.5L436.8,371.3 318.1,371.3C305.6,371.3,293.1,383.8,293.1,396.3L293.1,480.7C293.1,493.2,305.6,505.7,318.1,505.7L436.8,505.7 436.8,624.5C436.8,637,449.3,649.5,461.8,649.5L543.1,649.5z M618.1,880.6L618.1,802.5 386.9,802.5 386.9,880.6 618.1,880.6z M330.6,802.5L2.5,802.5 2.5,71.2 1002.5,71.2 1002.5,802.5 677.5,802.5 677.5,933.7 330.6,933.7 330.6,802.5z" />

<glyph unicode="&#xe727;" glyph-name="medical2" d="M169.1,394C169.4,393.6,169.7,393.2,170.1,392.8L169,394.1 169.1,394z M563.6,920.5L501.1,845.6 438.7,920.5C391.9,973.6 332.5,1001.7 270.1,1001.7 207.7,1001.7 145.2,973.6 98.4,920.5 -4.59999999999997,795.6 -4.59999999999997,595.7 101.5,474L169.1,394.1 168.4,395.1C167.1,397.4 167.1,399.8 167.1,402.1 167.1,414.6 173.3,420.8 179.6,420.8L176.5,420.8 292,430.1C292,430.1,326.4,433.2,326.4,464.4L342,558.1C345.1,586.2 354.5,589.3 367,589.3 379.5,589.3 392,580 392,564.3L423.2,420.7C423.2,420.7,432.6,398.8,438.8,430L473,789.4C476.1,817.5 485.5,814.4 498,814.4 507.4,814.4 516.7,814.4 519.9,789.4L554.2,508.4C554.2,508.4,554.2,467.8,576,467.8L726,467.8C735.3,492.8 751,502.1 769.7,502.1 797.8,502.1 819.6,474 819.6,436.5 819.6,399 797.8,370.9 769.7,370.9 751,370.9 735.3,383.4 726,405.2L607.3,405.2C607.3,405.2 591.7,399 585.4,377.1 585.4,377.1 582.3,345.8 579.2,327.1L579.2,317.7 579.2,314.6C576.1,302.1 566.7,289.6 557.4,289.6 544.9,289.6 535.5,308.3 532.4,308.3L507.4,505C507.4,505,498,533.1,491.8,511.2L463.7,233.3 463.7,230.2C463.7,211.5 454.3,192.7 438.7,192.7 429.3,192.7 420,205.2 416.8,205.2L416.8,218C416.8,221.1,413.7,224.2,413.7,227.3L379.4,389.7C379.4,389.7 370.1,408.5 363.8,389.7 363.8,389.7 354.4,377.2 332.5,377.2L176.4,386.5 176.4,380.3 501.1,2.5 903.9,474C1010.1,598.9 1010.1,798.8 903.9,920.5 857.1,975.1 795.4,1002.5 733.7,1002.5 672,1002.5 610.4,975.2 563.6,920.5z" />

<glyph unicode="&#xe728;" glyph-name="attendance" d="M189.4,304.4L439.4,304.4 439.4,394.4 189.4,394.4 189.4,304.4z M491.9,308.1L883.7,308.1C866.9,386.3,802.6,444.6,725.8,444.6L649.9,444.6C573,444.6,508.8,386.3,491.9,308.1z M189.4,454.4L439.4,454.4 439.4,544.4 189.4,544.4 189.4,454.4z M585.7,582.5C585.7,526.1 631.4,480.4 687.8,480.4 744.2,480.4 789.9,526.1 789.9,582.5 789.9,638.8 744.2,684.6 687.8,684.6 631.4,684.6 585.8,638.8 585.7,582.5z M189.4,604.4L439.4,604.4 439.4,694.4 189.4,694.4 189.4,604.4z M905.3,799.5L905.3,198.8 103.2,198.8 103.2,799.5 905.3,799.5z M2.5,101.5L1002.5,101.5 1002.5,903.6 2.5,903.6 2.5,101.5z" />

<glyph unicode="&#xe729;" glyph-name="assesment" d="M556.1,68.3L556.1,65 444.3,65 444.3,68.2C447.4,260.5 482,371 500.1,374.2 518.4,371.1 553.1,260.7 556.1,68.3z M474.4,429.1C480.7,428.4,487.2,427.9,493.9,427.9L506.7,427.9 506.9,427.9C513.6,428,520.1,428.4,526.4,429.1L530.7,429.7 527.9,425.1C519.8,412.8 510.1,405.5 500.4,405.5 489.8,405.5 479.1,414.3 470.5,428.9L470.1,429.7 474.4,429.1z M403.7,454.8C411.4,449.8,419.6,445.3,428.3,441.5L431.1,440.3 432.2,436.9C440.1,415,451.5,398,465.1,387.2L467.8,385.2 466.5,383.4C428.2,327.4,414.9,176.5,413,66.9L413,64.9 93.6,64.9 93.6,212.6C92.7,359.7,335.6,439.4,398.5,457.5L399.3,457.7 403.7,454.8z M603.3,458.5C660.6,442.3,912.3,362.3,911.4,212.4L911.4,65 587.4,65 587.4,67C585.6,176.5,572.3,327.5,533.9,383.5L532.5,385.4 535.8,387.9C549.6,399.2,561.2,417,569,439.5L569.3,440.3 572.3,441.6C581,445.4,589.2,449.9,596.8,454.9L602.5,458.8 603.3,458.5z M614.2,889.2C646.7,851,656.8,792.7,644.3,715.8L640.6,692.9 661.5,682.7C661.5,682.7 662.5,680.8 662.8,679.4 664.2,672.2 658.2,655.1 636.7,630.7L631,624.2 629.4,615.7C629.2,614.5,605.3,491.4,506.5,490.3L494.3,490.3C396.1,491.3,372.2,610.7,371.2,615.7L369.6,624.2 363.8,630.7C336.8,661.3 337.2,676.1 337.6,678.8 337.9,681.3 339.3,682.6 339,682.6 339,682.6 339,682.6 338.9,682.6L359.8,692.8 356.1,715.7C343.6,792.6 353.7,851 386.2,889.1 429,939.4 497.2,940 500.5,940 503.4,940 571.5,939.4 614.2,889.2z M338.7,929.7C296.6,880.1 280.9,810.8 292,723.2 285,715.1 279.1,704.5 276.5,691.6 270.8,662.9 282.6,630.7 311.6,595.8 317.4,570.5 329.7,538.3 349.9,508.8L350.3,508.2 347.1,507.2C245.5,473.5,30,382,31.1,212.4L31.1,2.5 973.9,2.5 973.9,212.3C975,385.3,750.8,477.1,652,509.2L651.1,509.5 655.2,515.7C672.7,543.3 683.6,572.6 689,595.9 718,630.7 729.8,663 724.1,691.7 721.5,704.6 715.6,715.2 708.6,723.3 719.7,810.8 704,880.2 661.9,929.8 601.7,1000.5 510.7,1002.6 500.1,1002.6 489.9,1002.5 398.9,1000.4 338.7,929.7z" />

</font>
</defs>
</svg>
